/* XPM */
static char *_1627cf986c541e5f80b75a4c3acc55cUrsVCVcXn2IBpANA[] = {
/* columns rows colors chars-per-pixel */
"100 67 245 2 ",
"   c None",
".  c #283C00",
"X  c #7F2201",
"o  c #2E4401",
"O  c #314B00",
"+  c #3B5406",
"@  c #465C15",
"#  c #425B09",
"$  c #795408",
"%  c #49680D",
"&  c #597917",
"*  c #516E13",
"=  c #587727",
"-  c #56712A",
";  c #72752B",
":  c #5B4F48",
">  c #6A5B4F",
",  c #6A6257",
"<  c #756A59",
"1  c #706E4A",
"2  c #767268",
"3  c #851A01",
"4  c #933B07",
"5  c #87340C",
"6  c #884909",
"7  c #954E06",
"8  c #8C5505",
"9  c #975705",
"0  c #895C17",
"q  c #905615",
"w  c #896409",
"e  c #986A06",
"r  c #9B7409",
"t  c #976A16",
"y  c #997518",
"u  c #8A6816",
"i  c #A66A04",
"p  c #A47A03",
"a  c #A57703",
"s  c #B27704",
"d  c #A46D15",
"f  c #A37B16",
"g  c #B47815",
"h  c #86592E",
"j  c #906E2C",
"k  c #A26714",
"l  c #8F6E50",
"z  c #86776A",
"x  c #907E6B",
"c  c #966451",
"v  c #668A34",
"b  c #6D9334",
"n  c #6F963E",
"m  c #779D39",
"M  c #6D9029",
"N  c #7EA235",
"B  c #5F821C",
"V  c #6A8A44",
"C  c #77894B",
"Z  c #6E9346",
"A  c #759744",
"S  c #758F54",
"D  c #7DA34A",
"F  c #7DA252",
"G  c #AC8303",
"H  c #AA8406",
"J  c #B28602",
"K  c #B48B00",
"L  c #BC8D01",
"P  c #B38908",
"I  c #BB9404",
"U  c #A98619",
"Y  c #B88A18",
"T  c #BA911B",
"R  c #A68526",
"E  c #B59031",
"W  c #85AC3D",
"Q  c #BDA730",
"!  c #BAA011",
"~  c #C18E01",
"^  c #C29401",
"/  c #C59A01",
"(  c #CA9C01",
")  c #C6990A",
"_  c #C59C15",
"`  c #CEA301",
"'  c #CBA507",
"]  c #D2A501",
"[  c #D6AB03",
"{  c #DCB803",
"}  c #D2BB13",
"|  c #CDA418",
" . c #E3B901",
".. c #CAA429",
"X. c #C8A636",
"o. c #D4B42E",
"O. c #C89F20",
"+. c #EAC101",
"@. c #E9CC2B",
"#. c #889C57",
"$. c #8F8952",
"%. c #AB9448",
"&. c #A58D55",
"*. c #AA8F55",
"=. c #87A949",
"-. c #8CB24A",
";. c #87AA57",
":. c #99BD57",
">. c #92B353",
",. c #B6A84E",
"<. c #948567",
"1. c #938F71",
"2. c #AC9467",
"3. c #B49865",
"4. c #A89578",
"5. c #B59B73",
"6. c #A48A6E",
"7. c #97BA68",
"8. c #96AF6E",
"9. c #BEA868",
"0. c #B7A678",
"q. c #A6B06D",
"w. c #C9AA4A",
"e. c #D2AF4B",
"r. c #D1B14B",
"t. c #C7AE5C",
"y. c #CEB255",
"u. c #CEB65F",
"i. c #D2B453",
"p. c #D2B55A",
"a. c #D7B85A",
"s. c #D2AF50",
"d. c #C2AC6B",
"f. c #CEB464",
"g. c #D2B963",
"h. c #D4B968",
"j. c #C2AA77",
"k. c #CBB777",
"l. c #D4BD78",
"z. c #A6C95B",
"x. c #A9CA67",
"c. c #B1D16B",
"v. c #ABCA73",
"b. c #B5D578",
"n. c #AFD077",
"m. c #9BC05C",
"M. c #D2C84D",
"N. c #D7C27B",
"B. c #C7CB71",
"V. c #E7D15F",
"C. c #959285",
"Z. c #A89985",
"A. c #B39B86",
"S. c #ABA587",
"D. c #B6A987",
"F. c #AABA82",
"G. c #B7B68A",
"H. c #B6AB95",
"J. c #BAB69A",
"K. c #AAA293",
"L. c #BBB6A7",
"P. c #BCB5B2",
"I. c #C5AA87",
"U. c #CCBD8B",
"Y. c #C8B886",
"T. c #D3BC86",
"R. c #C2AE9C",
"E. c #C7B897",
"W. c #D0BF9E",
"Q. c #C4B8A6",
"!. c #C3BBB7",
"~. c #B7D782",
"^. c #ACC68D",
"/. c #D8C689",
"(. c #C3D789",
"). c #CBC29A",
"_. c #D5C598",
"`. c #CDD895",
"'. c #E1CE90",
"]. c #C6E298",
"[. c #CBC3A4",
"{. c #C8C4AA",
"}. c #D3CBAD",
"|. c #D4C8A8",
" X c #D8D1A9",
".X c #CDCBB2",
"XX c #C9C7B9",
"oX c #D3CCB3",
"OX c #D5CDB6",
"+X c #D5D3BC",
"@X c #DBD4BC",
"#X c #D9D5B8",
"$X c #CEDCB4",
"%X c #E5D8A9",
"&X c #E6DCB8",
"*X c #D6EAB1",
"=X c #ECE4B9",
"-X c #F3EBBE",
";X c #CACAC4",
":X c #D1CFC3",
">X c #D4D3C3",
",X c #DAD5C4",
"<X c #DBD9C3",
"1X c #D5D4CA",
"2X c #DBDBCB",
"3X c #D8D8C9",
"4X c #DBDCD3",
"5X c #DBDDDC",
"6X c #D7D7D6",
"7X c #CED0C8",
"8X c #E2DBC4",
"9X c #E0DED7",
"0X c #DEE2DD",
"qX c #DEE2D5",
"wX c #E5E1CD",
"eX c #EAE6C9",
"rX c #E4E4D5",
"tX c #E3E5DB",
"yX c #E6E8DB",
"uX c #EBECDC",
"iX c #E9E8D4",
"pX c #F2EEDB",
"aX c #F4F1D6",
"sX c #F1EFCF",
"dX c #DBDCE4",
"fX c #DEE2E2",
"gX c #E3E5E3",
"hX c #EAECE4",
"jX c #E3E4EB",
"kX c #E6EAEA",
"lX c #EAEDEC",
"zX c #E5E9E5",
"xX c #EDF1ED",
"cX c #EFF1E5",
"vX c #F1F4EC",
"bX c #F6F5E6",
"nX c #EAECF1",
"mX c #E9E9F7",
"MX c #F1EFFE",
"NX c #EEF2F2",
"BX c #F1F6F5",
"VX c #F5F8F5",
"CX c #F3F3FC",
"ZX c #F6FAF9",
"AX c #F9FAF9",
/* pixels */
"                                                                                                                                                                                                        ",
"                                                                                                                                                                                                        ",
"                                                                                                                                                                                                        ",
"                                                                                                                                                                                                        ",
"                                                                                                                                                                                                        ",
"                                                                                                                                                                                                        ",
"                                                                                  MXmXmX                                                                                                                ",
"                                                                                MXMXMXMXMXMX                                                                                                            ",
"                                                                            6XdXkXjXjXjXjXdX                                                                                                            ",
"                                                                P.Q.Q.Q.{.7X6X6XhXtX9X9X6X1XXX    K.K.K.D.D.D.D.E.E.R.Y.).8X                                                                            ",
"                                                              Z.l l x x 6.4.6.5.I.I.E.W.A.I.T.I.I.U._.W.E.E._._._.E.U.Y.I.{.6X                                                                          ",
"                                                              1.; > , : : > , < z z z z z z z x 1.A.,XiXpXbXAXbXeXU.Y./.<.C.5X                                                                          ",
"                                                              P.C.C.z 2 , , , < < > > , < < 2 z 2 1.lXAXVXVXVXvX2XQ.[.@XP.6XfX                                                                          ",
"                                                              5X7XdXCXnXdXdXtXuXhXnXlXjXdXdXdXmXmXdXkXmXnXnXlXfX0X5XgXlXCXCXjX                                                                          ",
"                                                              5X7XdXMXmXdX5XwXsXhXhXmXvXjXjXMXMXMXjXnXnXnXnXnXkXfXfXzXlXNXBXjX                                                                          ",
"                                                              dX;XdXmXjXdXfX<XqXeXsXpXlXtXjXMXMXCXCXCXNXNXNXNXnXzXzXkXnXBXCX                                                                            ",
"                                                              dXXX6XjXjXgXtX2XrX-XeXiXgX5XjXCXCXCXCXCXCXCXNXNXNXnXzXkXxXBXVX                                                                            ",
"                                                              gX;X1XkXzXgXgXtXrXsXeX9XgXtXgXnXmXmXkXZXZXVXBXVXNXNXkXkXxXVXNX                                                                            ",
"                                                              jX;X;XgXkXkXkXzXyXpXiXtXzXgXgXgXzXgXgXVXZXVXVXVXBXlXzXlXxXZXBX                                                                            ",
"                                                              fX7XXX4XtXtXtXyXyXuXuXyXuXtXtXtXtXtXtXBXZXZXVXVXVXlXzXlXcXBXBX                                                                            ",
"                                                              fXqX3X4XqXyXtXrXrXtXtXtXiXyXtXuXtXrX4XvXZXVXvXvXxXhXhXhXxXxXvX                                                                            ",
"                                                              tX3X3XuXuXyXrXyXyXyXiXyXhXuXyXhXcXhXyXcXVXVXBXvXcXBXvXvXvXBXBX                                                                            ",
"                                                                {.$XyXyXrXrXiXrXrXyXiXhXcXcX9XvXvXwXcXAXVXVXVXVXvXcXvXvXvXlX                                                                            ",
"                                                                K.J.J.{..X+X<X+XoX>XOXQ.,XcX:X1XrX+XuXAXVXVXbXVXuX<XwX2X>X2X                                                                            ",
"                                                                <.4.x 5.4.H.D.S.A.6.4.D.H.L.!.Q.R.H.6XbXhXdX9X9X{.Z.4.6.Z.P.                                                                            ",
"                                                                l h h h h l c c h h h h j l c h c c R.,X!.R.R.R.4.*.2.5.A.H.                                                                            ",
"                                                                %.H y R w 0 q 9 r r 9 8 q 0 0 h $ h I.iXwXeX|.R.T.k.T.I.H.}.                                                                            ",
"                                                                %.U P T K J e 6 9 p 9 9 u e d t t l R.wXQ.!.Q.&XT.k.T.0.U.<X                                                                            ",
"                                                                &.g E g 9 ~ J 8 4 i 9 7 7 f j y j j 5.@XpXR.R.W.5.9.l.3.).:X                                                                            ",
"                                                                <.y ..g 3 s J i 4 i 5 5 f R y d t t j.R.pX,XR.@X XI.*.9.5.XX                                                                            ",
"                                                                *.R O.~ 3 i J e 4 9 6 9 q 9 5 t y r k.Q.,XpXR.I. Xj.l 3.S.@X                                                                            ",
"                                                                &.E E 4 3 i ~ 9 3 4 9 7 q 5 5 t r y 9.R.R.pX,XA.I.j.T.3.Y.@X                                                                            ",
"                                                                $.%.T d 9 a s i a i 7 8 r i 9 8 q t 9.<XOX8XpX|.eX3.T.j.T.,X                                                                            ",
"                                                                *.E g s s e w e a s 7 9 u i e q 6 j 2.Q.bX!.iXpXOXx 3.3.A.W.                                                                            ",
"                                                                %.X...~ s s i i 9 9 9 9 9 9 9 e u 0 &.R.,XoXQ.R.T.j.5.j.j.OX                                                                            ",
"                                                                w.e.o.[ ^ L J L a e a e e p p r a t E &X8X&X&X%X'.f.h.h.d.oX                                                                            ",
"                                                                %.X.X.'  .` s ( ( ~ s e i ~ ~ ~ P t E T._._.&X%Xf.w.k.k.d.#X                                                                            ",
"                                                                %.Q %._ [ J $ a ( ^ s 6 8 L L L r h y T._._.eX&Xf.w.N.N.k.#X                                                                            ",
"                                                                  o.Q | [ L $ a ( ^ p $ $ L J L t ; y h._.'.pX=Xf.w.N.N.9. X                                                                            ",
"                                                                  Q ..{  .{ p L ( ( L $ p ^ L L G u p y.T.T.&X'.f.w.N.k./.@X                                                                            ",
"                                                                  ,.E ! ! I H H G K K e p P P P P y U t.%X%X=X%X/.N.N.N.U.OX                                                                            ",
"                                              Z V V ;.            M.o.{ { [ ' I H r r r r r r f U U f w.%X%X'./.l.p.p.u.k.oX                                                                            ",
"                                        7.8.Z = v b v b Z 8.F.    V.@.{ +.+. . .[ ( / / ^ ^ ~ ~ I L L L i./.l.g.p.i.a.f.Y.<X                                                                            ",
"                                      F F D ;.b m ;.b v m =.7.D v.M.@.+. . . .{ ] ( / ^ ^ L ~ ^ I / _ _ o.N.l.p.i.i.p.g.).2XlXxXvXBXVX                                                                  ",
"                                    F v ;.7.F F =.>.-.W =.-.c.m.x.,.} { { { { [ ] ( / ^ ^ ^ ) _ ....e.i.h.'.g.y.i.a.g.h.).qXlXlXNXNXBXBXBXBXBXBX                                                        ",
"                                  7.F V ;.;.D D >.-.-.W -.:.x.:.x.x.z.o.{ [ ` ` ] ( / / ( | _ ....X.s.p.g.g.i.s.i.a.u.h._.rXlXlXNXBXBXBXBXBXBXBXVXVXVX                                                  ",
"                                  F = F Z Z B b M & B W M :.z.c.c.n.b.b.} ' I ' ( ` / ( ) | ( ^ | X.s.p.u.p.y.i.r.y.u.k. XqXlXNXNXBXBXBXBXBXBXCXZXBXVXBXBXBX                                            ",
"                                  v @ = - v ;.;.=.#.M B & W :.:.c.x.b.~.c.} [ ` ` ( ( ( | ) ^ ^ ^ _ s.s.a.r.i.a.y.y.g.k.`.yXNXNXNXBXBXBXBXBXNXZXNXBXZXVXVXZXcXlX                                        ",
"                                  - @ @ @ ;.@X>X.XS.C # @ & ; A =.c.z.b.c.z.} [ ` ` ( / .._ ^ I ^ ) e.h.N.e.a.a.y.a.f.B. XuXnXNXNXNXNXBXBXNXZXNXNXZXZXZXZXZXVXyXcX                                      ",
"                        V     - - @ @ * q.[.,XG.C * o . o @ 1.F.A x.n.n.c.~.M.' ] ` ( ` o._ ^ / ^ ) e.N.N.i.p.p.u.y.f.k. XyXkXlXNXNXNXBXNXBXNXZXZXZXZXZXZXVXZXyXaX                                      ",
"                          S ;.= = * * * >.8.#.= # + o o o C ,X8X}.F.v.c.x.x.b.M./ / ^ I .._ K I L L w.l./.w.t.9.t.t.9./.+XqXzXkXkXxXNXNXNXBXVXVXZXZXZXZXVXBXhX8XrX                                      ",
"                          ).G.8.b W W M B & & % & % + O + 1.OXOX#XeX(.(.b.b.b.B.I K K K X.T G G H U 9.Y.Y.,.9.9.9.9.B.[.+X0XzXkXkXlXNXNXNXVXVXZXZXZXZXVXhXqX}.D.                                        ",
"                          Q.1.1 C ;.x.W m M b b B & + O = ).@X@X2XwX=X`.v.c.~.(.Q Y P H Q R a r R %.q.D.Y.9.D.Y.E.).{.).OXyXhXlXzXgXkXlXNXBXVXVXZXNXhX,XJ.4.1.                                          ",
"                              <.1 ; #.:.v.v.^.F.b B % = 8.oX,XtXgXpXiX#X$X].].(.(.d.9.,.j.3.&.2.2.D.Q.{..X{.XX+X.X.X.X.X+X2XqXzXkXgXfXkXnXcXlXyX>X).S.<.<                                               ",
"                                  q.2.q.q.J.{.+X^.;.S {.3X:X1X9XwXsXaXaXhXiX].].*X9X1X:X:XXXP.!.!.;X5XfXtX4XfXgX2X@X}.[..X@X>XqXyXyXrX<X#X X).D.S.S.K.                                                  ",
"                                      {.E.E.G.D.H.D.S.Q.{.XXXXXX@X`.%XeXaXsX`.*X=X@XOXOX6X1X!.XX;X7X7X0X4XqX2X>X$X{.).).|. X}.#XOX}.}..X.X+X1X1X                                                        ",
"                                            qX3X3X3X<X.X[.E.^.J.E.U._./.)._./.Y._.U.I.Y.}.W.U.W.Q.|.}.#X&X&X@X}.OXOX#X@X<X2X4XtXhX0X0XfX                                                                ",
"                                                  qXyXyXqXrX9X3X3X3X<X$XoX.X.X{.|.|.|.[.Q.|.oXoX}.oX,X<X4X4X4X5XtXtX0X0X0X0XfX0X                                                                        ",
"                                                              3X>X4XqX0XqX4X4X2X4X2X4X4X5X5X4X5X5X9XfXfXfXfX0XtX0X5X4X6X4X                                                                              ",
"                                                                  >X>X+X>X>X>X>X1X1X3X3X1X,X:X:X7X1X:X+X:X;X;X;XXXP.L.                                                                                  ",
"                                                                              [.E.Q.J.J.H.H.D.D.H.H.H.J.J.L.                                                                                            ",
"                                                                                                                                                                                                        ",
"                                                                                                                                                                                                        ",
"                                                                                                                                                                                                        ",
"                                                                                                                                                                                                        ",
"                                                                                                                                                                                                        ",
"                                                                                                                                                                                                        "
};
