/* XPM */
static char *result[] = {
/* columns rows colors chars-per-pixel */
"53 100 213 2 ",
"   c #1E1E1E",
".  c #322C1E",
"X  c #1D1E22",
"o  c #1F2022",
"O  c #232323",
"+  c #2B2A24",
"@  c #272728",
"#  c #272829",
"$  c #2A2B2C",
"%  c #292521",
"&  c #342E25",
"*  c #393628",
"=  c #2E2F31",
"-  c #2F3033",
";  c #2B3837",
":  c #323335",
">  c #343639",
",  c #36383C",
"<  c #3A3B3D",
"1  c #3C3A34",
"2  c #46381E",
"3  c #533F1E",
"4  c #443D2C",
"5  c #443721",
"6  c #413E35",
"7  c #5A431C",
"8  c #55441D",
"9  c #6B4D19",
"0  c #62471A",
"q  c #795618",
"w  c #655419",
"e  c #7E671C",
"r  c #584826",
"t  c #5A542C",
"y  c #464338",
"u  c #554A36",
"i  c #5A5531",
"p  c #4F4D28",
"a  c #624C24",
"s  c #6B5823",
"d  c #735920",
"f  c #686326",
"g  c #786A24",
"h  c #766D2F",
"j  c #3C3E41",
"k  c #3E4144",
"l  c #3E4648",
"z  c #395A58",
"x  c #37605C",
"c  c #424346",
"v  c #4B4943",
"b  c #43464A",
"n  c #46494D",
"m  c #494B4E",
"M  c #4B4741",
"N  c #51504E",
"B  c #575446",
"V  c #4B4E53",
"C  c #474A50",
"Z  c #4E5156",
"A  c #4F5259",
"S  c #445D5C",
"D  c #505459",
"F  c #55595E",
"G  c #5C5C5A",
"H  c #565754",
"J  c #43605F",
"K  c #746B44",
"L  c #68665C",
"P  c #565A61",
"I  c #595E64",
"U  c #476363",
"Y  c #5C6166",
"T  c #5F6369",
"R  c #4C7674",
"E  c #61666C",
"W  c #64686F",
"Q  c #696763",
"!  c #6E706F",
"~  c #7C7A66",
"^  c #73736C",
"/  c #78746C",
"(  c #676C73",
")  c #696D74",
"_  c #696F78",
"`  c #6B7176",
"'  c #6D727A",
"]  c #697978",
"[  c #7D7A73",
"{  c #71767E",
"}  c #767675",
"|  c #716E69",
" . c #865D16",
".. c #86671A",
"X. c #966914",
"o. c #9B7619",
"O. c #8C7117",
"+. c #A26E13",
"@. c #A77513",
"#. c #B37911",
"$. c #BA7C10",
"%. c #BC7C0F",
"&. c #8D782C",
"*. c #A07F26",
"=. c #867A51",
"-. c #817C63",
";. c #817E77",
":. c #4E827F",
">. c #A7851A",
",. c #B98513",
"<. c #B7941A",
"1. c #8D8523",
"2. c #938137",
"3. c #B49A29",
"4. c #B7AB22",
"5. c #BCB122",
"6. c #CB850E",
"7. c #CC870F",
"8. c #D6920F",
"9. c #CB8D11",
"0. c #C48911",
"q. c #CC9212",
"w. c #C79814",
"e. c #D79C12",
"r. c #CBA517",
"t. c #DAA213",
"y. c #DDBD1C",
"u. c #EAAC12",
"i. c #E3A813",
"p. c #ECB313",
"a. c #E5B41B",
"s. c #F4BB14",
"d. c #F2B913",
"f. c #CBAB27",
"g. c #DAB329",
"h. c #C8A837",
"j. c #D1B129",
"k. c #EBBD21",
"l. c #E7BB23",
"z. c #DEC51F",
"x. c #EAC31B",
"c. c #FBC415",
"v. c #FFCA15",
"b. c #F7C517",
"n. c #FFD419",
"m. c #FFD91A",
"M. c #ECD31F",
"N. c #FFE21E",
"B. c #D8C521",
"V. c #D6CA23",
"C. c #F3D825",
"Z. c #FCE721",
"A. c #958958",
"S. c #8C855B",
"D. c #A6934B",
"F. c #B69D42",
"G. c #A19051",
"H. c #898467",
"J. c #B5A358",
"K. c #D4BA54",
"L. c #EAC643",
"P. c #757A82",
"I. c #797E86",
"U. c #4B8B85",
"Y. c #7D828B",
"T. c #728181",
"R. c #7D9090",
"E. c #5AB9AF",
"W. c #62C6BB",
"Q. c #7BECDD",
"!. c #6CEADC",
"~. c #7BF2E3",
"^. c #81878F",
"/. c #8D8B86",
"(. c #928E85",
"). c #918E88",
"_. c #97938B",
"`. c #828790",
"'. c #858B94",
"]. c #888E98",
"[. c #888E97",
"{. c #8B929B",
"}. c #829999",
"|. c #9E9A92",
" X c #A19D94",
".X c #A8A59D",
"XX c #939AA4",
"oX c #949AA4",
"OX c #8F96A0",
"+X c #9CA3AE",
"@X c #94AFAE",
"#X c #9EA5B0",
"$X c #97B5B5",
"%X c #B4B1AB",
"&X c #B4B1AA",
"*X c #9BC1BC",
"=X c #AFD9D6",
"-X c #AECECC",
";X c #96EFE5",
":X c #87FBEB",
">X c #9BFCED",
",X c #83EFE1",
"<X c #A6FFEC",
"1X c #ABFFEF",
"2X c #A4F2EC",
"3X c #B6FFF3",
"4X c #BBFFF4",
"5X c #BFF7F0",
"6X c #B6F5EC",
"7X c #C7FEF8",
"8X c #D3FFFE",
"9X c #C5F0ED",
"0X c None",
/* pixels */
"0X0X0X0X0X0X0X0X0X0X0X0X0X0X0X0X0X0X0X0X0X0X0X0X0X0X0X0X0X0X0X0X0X0X0X0X0X0X0X0X0X0X0X0X0X0X0X0X0X0X0X0X0X",
"0X0X0X0X0X0X0X0X0X0X0X0X0X0X0X0X0XO O $ : < c c m n c j > = # O   0X0X0X0X0X0X0X0X0X0X0X0X0X0X0X0X0X0X0X0X",
"0X0X0X0X0X0X0X0X0X0X0X0X0X0XO $ > b P E ) { I.I.Y.`.[.{.{.[.Y.) D c $ O 0X0X0X0X0X0X0X0X0X0X0X0X0X0X0X0X0X",
"0X0X0X0X0X0X0X0X0X0X0XO $ , V I ( ( ( ( ( ( ( ( ( ( ) ' { I.'.XX+XoX[.` Z : O 0X0X0X0X0X0X0X0X0X0X0X0X0X0X",
"0X0X0X0X0X0X0X0X0X% * m P ( ) ( ( ( ( ( ( ( ( ( ( ( ( ( ( ( ( ` { '.XX+X+X{.) b + 0X0X0X0X0X0X0X0X0X0X0X0X",
"0X0X0X0X0X0X0X0X0X& >.j.G.~ ! ( ( ( _ ( ( ( ( ( ) ( ( ( ( ( ( ( ( ( ) ^.XX#X#XoXY.m # 0X0X0X0X0X0X0X0X0X0X",
"0X0X0X0X0X0X0X0X0XO 8 @.e.i.g.F.D.A.-.! ( ( ( ( ( ( ( ( ( ( ( ( ( ) ( ( { [.#X#X#XoX{ c O 0X0X0X0X0X0X0X0X",
"0X0X0X0X0X0X0X0X0X0Xo % 5 q @.9.e.i.l.g.h.D.S.~ ` ( ( ( ( ( ( ( ( ( ( ( W I.+X#X#X+X#XXXF @ 0X0X0X0X0X0X0X",
"0X0X0X0X0X0X0X0X0X0X0X0X0XO % & 5 7 q X.,.t.a.a.g.F.A./ ( ( ( ( ( ( ( ) ) ].#X#X+X+X+X#X+XY O 0X0X0X0X0X0X",
"0X0X0X0X0X0X0X0X0X0X0X0XO $ > j V V C b M r q +.q.u.d.l.h.A.^ ( ( ( ( ( ) {.#X#X+X#X#X+X#X+XE O 0X0X0X0X0X",
"0X0X0X0X0X0X0X0X0X0X0XO : n V I ( ( ( ) P.I.F + 2 9 +.q.p.s.g.G.^ ( ( ( ( ].#X#X+X#X+X+X+X#X+XF O 0X0X0X0X",
"0X0X0X0X0X0X0X0X0X0XO , V V P ) ( ( ) ( ( ' [.' > $ & 2 q 0.i.b.h.-.( ( ( I.+X+X+X+X+X#X+X+X+XXXn   0X0X0X",
"0X0X0X0X0X0X0X0X0XO : V V A W ( ( ( ( ( ( ( ) '.I.c , , = *  .9.s.k.G.! W _ ].+X#X+X+X#X+X+X#X#X^.$ 0X0X0X",
"0X0X0X0X0X0X0X0XO $ c V V D ( ( ( ) ( ) ( ( ( ) `.`.b b c , $ 3 #.u.c.h.^ ( ' ].+X#X+X+X#XoX{.+X+XI O 0X0X",
"0X0X0X0X0X0X0X0XO > V V V D ( ( ( ( ) ( ( ( ( ( ( ^.Y.j m V k : 5 +.i.v.h./ ( ) Y.XX+X+XoXI.' OX#X[.: 0X0X",
"0X0X0X0X0X0X0XO $ c Z V V A W ( ( ( ( ( ( ( ( ( ( ( [.P.< V V n > * +.u.v.h.^ ( ( ) { P.{ ) ( I.+X+XI   0X",
"0X0X0X0X0X0X0XO : n V m V Z T ! ( ( ( ( ( ( ( ( ( ( '.+XE < V V b > 5 $.d.v.F._ ( ( ( ( ( ( ' ].+X#XY.+ 0X",
"0X0X0X0XO + * * * * 1 1 , , S Y T ( ) ` ( ( ) ( ( ` XX#X{.m n V V b - 3 q.c.k.-.( ( ( ( ( ( '.#X+X+X{.> 0X",
"0X0X0X0X2 <.z.x.z.B.j.4.3.1.f t y y V U T ( ( ( ( ( Y.oXoX{ j V V V k =  .p.v.3.( ( ( ( ( ) `.#X#X#X+Xm   ",
"0X0X0XX 7 u.v.v.v.n.n.n.N.N.N.M.V.5.1.f y b ( ( ( ( ( ' { {.Z n V V m < 5 9.v.l./ ( ( ( ( ( P.oX+XoX+XP   ",
"0X0X0Xo 9 t.v.v.v.v.v.v.v.v.v.v.n.m.m.Z.M.f C ( ( ( ) ( W ^.( c Z V V k = X.s.v.D.( ( ( ( ) ( ' I.P.{.E   ",
"0X0X0Xo q 7.t.s.v.v.v.c.v.v.v.v.v.v.v.v.N.V.y T ( ( ( ( ( I.{ c V V V C : 9 u.v.h.) ( ( ( ( ( ( ( ( '.( O ",
"0X0X0XO  .6.6.7.i.p.s.v.v.v.v.v.v.v.v.v.m.Z.g S ) ( ( ( W I.I.: j C Z C , 5 e.v.l./ ) ( ) ( ( ( ( ( Y.W O ",
"0X0X0X  q 6.6.6.6.7.8.i.d.s.v.v.v.v.v.v.v.Z.5.6 W ( ( ( ( { Y.Z F > j b , 5 9.v.b.-.( ( ( ( ( ) ( ( P.E   ",
"0X0X0XO 9 $.%.%.6.6.6.6.6.8.i.u.b.v.v.v.v.m.C.t Y ) ( ( ( { ^.U.;X$XP.l # * ,.p.s.A.( ( ( ( ( ( ( ( { A   ",
"0X0X0X0X% & 2 2 7 9 q ..X.+.@.%.9.t.s.v.v.m.Z.1.C ( ( ( ( ' [.:.~.3X4X=XR.F a X.0.=.W ( ( ( ( ( ( ( ' c 0X",
"0X0X0X0X0X0X# j j , : = + 3 3 3 3 7 q >.w.r.M.4.k ( ( ) ( ` [.R ~.<X<X1X4X9X$X` u 1 m F T ( ( ( ( ( ( : 0X",
"0X0X0X0X0X0X@ D E Y I A ,  .7.,.r - < , < y p p < ( ( ( ( ` [.U !.>X<X<X<X4X8X7X=XR.m : k A I T ( ) F + 0X",
"0X0X0X0X0X0XO V ( ( ( Y k  .s.c.g > Z Z F W T P Y W ) ( ( ) ].A U.Q.<X1X<X1X7X4X4X8X9X@XY , , b F I k O 0X",
"0X0X0X0X0X0XO , I I E I C d c.n.o.> m V Z T ( ` ) ) ( ( ( ( [.D $ x W.:X<X<X7X7X1X7X7X1X4X-XT.k : j $ 0X0X",
"0X0X0X0X0X0XO $ < < j c j r p.v.<.= n V Z Z E ( ( ( ( ( ( ( '.G k ; ; U.!.>X1X7X3X4X8X1X<X3X7X-X< O O 0X0X",
"0X0X0X0X0X0XO m F F D Z b 6 q.v.a.y k V V V A E ( ) ( ( ( ( R.E l n = > z E.,X2X2X,X2X;XQ.Q.;X@X$ 0X0X0X0X",
"0X0X0X0X0X0XO j A ( ( ( E k +.c.v.s > V V V V A E ( ( ( ( W ^.( k n - V F l S U U U U U U J S k   0X0X0X0X",
"0X0X0X0X0X0XO : V P ( ( ( V a a.v.<.: k Z V V V D E ( ( ( ( I.) k n - V ( W T E ( ` ' { Y.^.{.{ $ 0X0X0X0X",
"0X0X0X0X0X0X0XO c V P ( ( I 1 ,.v.b.s : b V V V V D E ( ( ( P.{ k C : V W ) ( ( ( ( ( ` ) ` I.'., 0X0X0X0X",
"0X0X0X0X0X0X0XO - V V D T E b a t.v.r.* j C V C V V A I ( ( { { c n - n E ( ( ( ( ( ( ( ( ( ( '.n 0X0X0X0X",
"0X0X0X0X0X0X0X0XO < V V Z P F 1 X.s.v.>.* j l C V V V V F W ) Z : c : n T ) ( ( ( ( ( ( ( ( ) Y.m   0X0X0X",
"0X0X0X0X0X0X0X0X0XO k V V V V C 4 ,.v.v.>.1 = j m V V Z V V < c P > @ c P ( ( ( ( ( ) ( ( ( ) Y.j 0X0X0X0X",
"0X0X0X0X0X0X0X0X0X0X$ c V V V V b r q.b.c.q : > : > < j : : m ( Y.I.n : m Y ( ( ( ( ( ( ( ( ' W + 0X0X0X0X",
"0X0X0X0X0X0X0X0X0X0XO # c V V V V c r 9.u.9 c Y F m c n V E ( ( ) { `.Y > b I ) ) ( ( ( ( ) ( : 0X0X0X0X0X",
"0X0X0X0X0X0X0X0X0X0X0XO @ j m V V V k r #.9 > Z D F P P I ( ( ( ( ( ) Y.{ c < F W ( ( ( ) E < O 0X0X0X0X0X",
"0X0X0X0X0X0X0X0X0X0X0X0X0XO $ : < c n b 4 5 j C V V V V V D Y ( ( ( ( ) { Y.V : Z I E W I : O 0X0X0X0X0X0X",
"0X0X0X0X0X0X0X0X0X0X0X0X0X0XO O O $ # = - $ > V V V V V V V Z P W ( ( ( ( ' Y.E : c Z n $ O 0X0X0X0X0X0X0X",
"0X0X0X0X0X0X0X0X0X0X0X0X0XO O > V n > O o o # b V V V V V V V V D Y ( ) ( ( ( Y.` , : @ O 0X0X0X0X0X0X0X0X",
"0X0X0X0X0X0X0X0X0X0X0X0X0X@ n A c $ : c n j = @ = j V V V V V V V Z F W ( ( ( ( '.I.$ O 0X0X0X0X0X0X0X0X0X",
"0X0X0X0X0X0X0X0X0X0X0X0XO j V > : D ( ) ( ( E j O $ $ < n V Z V V V V A Y ( ( ( { XXE O 0X0X0X0X0X0X0X0X0X",
"0X0X0X0X0X0X0X0X0X0X0X0XO n j > T ) ( ) ( ( ( E : < j = $ : c V V V V V Z F W ( ` ^.c 0X0X0X0X0X0X0X0X0X0X",
"0X0X0X0X0X0X0X0X0X0X0X0XO $ $ I ) ( ( ( ( ' {.].A = n V < O O = k V V V V V A I ( A O 0X0X0X0X0X0X0X0X0X0X",
"0X0X0X0X0X0X0X0X0X0X0XO $ > < ( ( ( ( ( ( I.#X#X( > Q n c $ O O O $ j n V V V V V $ 0X0X0X0X0X0X0X0X0X0X0X",
"0X0X0X0X0X0X0X0X0X0X0XO k > k ( ) ( ) ( ( ' OX{.W 1 .X%X} : o 0X0X0XO $ : : : : $ O 0X0X0X0X0X0X0X0X0X0X0X",
"0X0X0X0X0X0X0X0X0X0X0X$ A : , E ! ) ( ( ( ( { Y.I < )..X%X_.$ 0X0X0X0X0X0X0X0XO O 0X0X0X0X0X0X0X0X0X0X0X0X",
"0X0X0X0X0X0X0X0X0X0XO < m $ $ H j.h.^ ( ( ( ' Y.D M  X X X%Xc 0X0X0X0X0X0X0X0X0X0X0X0X0X0X0X0X0X0X0X0X0X0X",
"0X0X0X0X0X0X0X0X0X0XO l : : $ , &.b.g.A.^ ( ( ( < Q  X X X%XH 0X0X0X0X0X0X0X0X0X0X0X0X0X0X0X0X0X0X0X0X0X0X",
"0X0X0X0X0X0X0X0X0X0X$ j $ , : O j K f.b.F.) ( V 1 (. X X|.&XG 0X0X0X0X0X0X0X0X0X0X0X0X0X0X0X0X0X0X0X0X0X0X",
"0X0X0X0X0X0X0X0X0X0X$ $ : < n < @ = b h K P n : [  X X X X.XG   0X0X0X0X0X0X0X0X0X0X0X0X0X0X0X0X0X0X0X0X0X",
"0X0X0X0X0X0X0X0X0X0XO $ , c V Z b > $ # $ $ 1 | ).|. X X X.XG 0X0X0X0X0X0X0X0X0X0X0X0X0X0X0X0X0X0X0X0X0X0X",
"0X0X0X0X0X0X0X0X0XO O : j V V V V V n n > $ Q G i L |. X X.XZ 0X0X0X0X0X0X0X0X0X0X0X0X0X0X0X0X0X0X0X0X0X0X",
"0X0X0X0X0X0X0X0X0XO $ , k b n C V V V V = + 1 ..r.f } _._.).1 0X0X0X0X0X0X0X0X0X0X0X0X0X0X0X0X0X0X0X0X0X0X",
"0X0X0X0X0X0X0X0X0XO $ # $ $ $ $ $ < n j & ..t O...B / [ ;.N O 0X0X0X0X0X0X0X0X0X0X0X0X0X0X0X0X0X0X0X0X0X0X",
"0X0X0X0X0X0X0X0X0XO O k P E ( W j c $ @ w 3.~ y 1 | / ~ G @ 0X0X0X0X0X0X0X0X0X0X0X0X0X0X0X0X0X0X0X0X0X0X0X",
"0X0X0X0X0X0X0X0X0XO Z ( ( ( ( I.Z Y.P.: 2 3.-./ L m v M + 0X0X0X0X0X0X0X0X0X0X0X0X0X0X0X0X0X0X0X0X0X0X0X0X",
"0X0X0X0X0X0X0X0X0X- T ( ( ( ( P.V ) XX{ @ >.A.;.[ [ [ G O 0X0X0X0X0X0X0X0X0X0X0X0X0X0X0X0X0X0X0X0X0X0X0X0X",
"0X0X0X0X0X0X0X0XO - I ( ( ( ~ H.n ( [.XXV 9 D.(.|.).|.N O 0X0X0X0X0X0X0X0X0X0X0X0X0X0X0X0X0X0X0X0X0X0X0X0X",
"0X0X0X0X0X0X0XO # $ V ( ( S.g.h A ( ` { I.* &.(. X.X/.$ 0X0X0X0X0X0X0X0X0X0X0X0X0X0X0X0X0X0X0X0X0X0X0X0X0X",
"0X0X0X0X0X0X0XO > $ , P -.f.g A ( ( ( ( Y.m * L (..XN O O o 0X0X0X0X0X0X0X0X0X0X0X0X0X0X0X0X0X0X0X0X0X0X0X",
"0X0X0X0X0X0X0X@ > $ $ > N a F ) ( ( ( ( { Y O @ 1 m $ c k $ O 0X0X0X0X0X0X0X0X0X0X0X0X0X0X0X0X0X0X0X0X0X0X",
"0X0X0X0X0X0X0X$ Z c $ j b I ( ( ( ( ( ( ' D V : j $ $ n V $ O 0X0X0X0X0X0X0X0X0X0X0X0X0X0X0X0X0X0X0X0X0X0X",
"0X0X0X0X0X0X0X= Z D > $ n P ( ( ( ( ~ ( I c W - V m $ : V , O O 0X0X0X0X0X0X0X0X0X0X0X0X0X0X0X0X0X0X0X0X0X",
"0X0X0X0X0X0X0X$ V D Z > $ b P ( ( D.x.=.j P ( : n n # > V V , O 0X0X0X0X0X0X0X0X0X0X0X0X0X0X0X0X0X0X0X0X0X",
"0X0X0X0X0X0X0X$ V D D V > # j D E S.f.u C ( E : n V - $ V V j $ O 0X0X0X0X0X0X0X0X0X0X0X0X0X0X0X0X0X0X0X0X",
"0X0X0X0X0X0X0XO b D D D Z j # - n A < n ( ( n - m V n $ , j , @ 0X0X0X0X0X0X0X0X0X0X0X0X0X0X0X0X0X0X0X0X0X",
"0X0X0X0X0X0X0XO < D D A A A n : O O , V Z j $ c V V V - $ , $ O 0X0X0X0X0X0X0X0X0X0X0X0X0X0X0X0X0X0X0X0X0X",
"0X0X0X0X0X0X0XO $ A D D A D D V b : $ O O # , j < j , # O O O 0X0X0X0X0X0X0X0X0X0X0X0X0X0X0X0X0X0X0X0X0X0X",
"0X0X0X0X0X0X0XO O c D D D A A D D D n : # # $ $ - = O O 0X0X0X0X0X0X0X0X0X0X0X0X0X0X0X0X0X0X0X0X0X0X0X0X0X",
"0X0X0X0X0X0X0X0Xo : V D A D D Z D D D Z V - O O O O 0X0X0X0X0X0X0X0X0X0X0X0X0X0X0X0X0X0X0X0X0X0X0X0X0X0X0X",
"0X0X0X0X0X0X0X0XO O j F D D D D A D D A D : 0X0X0X0X0X0X0X0X0X0X0X0X0X0X0X0X0X0X0X0X0X0X0X0X0X0X0X0X0X0X0X",
"0X0X0X0X0X0X0X0XO O = V D D D D D D D D V $ 0X0X0X0X0X0X0X0X0X0X0X0X0X0X0X0X0X0X0X0X0X0X0X0X0X0X0X0X0X0X0X",
"0X0X0XO 0X0X0X0X0XO O n D D A D D Z D D n O 0X0X0X0X0X0X0X0X0X0X0X0X0X0X0X0X0X0X0X0X0X0X0X0X0X0X0X0X0X0X0X",
"0X0XO : $ @ $ $ @ O O < D D D D D D A D < O 0X0X0X0X0X0X0X0X0X0X0X0X0X0X0X0X0X0X0X0X0X0X0X0X0X0X0X0X0X0X0X",
"0X0X$ D c b n n n j O < D D D A A D D V - 0X0X0X0X0X0X0X0X0X0X0X0X0X0X0X0X0X0X0X0X0X0X0X0X0X0X0X0X0X0X0X0X",
"0X0X: W D b V F I Y - k D A D D D A D b O 0X0X0X0X0X0X0X0X0X0X0X0X0X0X0X0X0X0X0X0X0X0X0X0X0X0X0X0X0X0X0X0X",
"0Xo j ) I b E ( ) P $ m D D D D A D A > O 0X0X0X0X0X0X0X0X0X0X0X0X0X0X0X0X0X0X0X0X0X0X0X0X0X0X0X0X0X0X0X0X",
"0XO b ( ( c T _ ( < > D D D D D D D n @ O 0X0X0X0X0X0X0X0X0X0X0X0X0X0X0X0X0X0X0X0X0X0X0X0X0X0X0X0X0X0X0X0X",
"0XO V ( _ V V F b $ m D D A D D D D : # O 0X0X0X0X0X0X0X0X0X0X0X0X0X0X0X0X0X0X0X0X0X0X0X0X0X0X0X0X0X0X0X0X",
"0X@ D W N u & # @ , A D A A m c k < $ , O 0X0X0X0X0X0X0X0X0X0X0X0X0X0X0X0X0X0X0X0X0X0X0X0X0X0X0X0X0X0X0X0X",
"0X$ P u o.<.5 n F $ = > , = + = 6 + $ : O 0X0X0X0X0X0X0X0X0X0X0X0X0X0X0X0X0X0X0X0X0X0X0X0X0X0X0X0X0X0X0X0X",
"0X= I u d.<.& m ' ) Y Z m F m 1.L.J.1 O 0X0X0X0X0X0X0X0X0X0X0X0X0X0X0X0X0X0X0X0X0X0X0X0X0X0X0X0X0X0X0X0X0X",
"0X> I a ,.r > D ( ) '.'.{ { M w.v.K.:   0X0X0X0X0X0X0X0X0X0X0X0X0X0X0X0X0X0X0X0X0X0X0X0X0X0X0X0X0X0X0X0X0X",
"0X@ > + + O n P ( ( ' ` ( E r p.C.h o 0X0X0X0X0X0X0X0X0X0X0X0X0X0X0X0X0X0X0X0X0X0X0X0X0X0X0X0X0X0X0X0X0X0X",
"0X0X0X0Xo $ V I ( ( ( ( ( V o.v.F.$ 0X0X0X0X0X0X0X0X0X0X0X0X0X0X0X0X0X0X0X0X0X0X0X0X0X0X0X0X0X0X0X0X0X0X0X",
"0X0X0X0XO < V I ( ( ( ( P a d.a.u X 0X0X0X0X0X0X0X0X0X0X0X0X0X0X0X0X0X0X0X0X0X0X0X0X0X0X0X0X0X0X0X0X0X0X0X",
"0X0X0X0XO n Z I ( ( ( A r e.n.&.O 0X0X0X0X0X0X0X0X0X0X0X0X0X0X0X0X0X0X0X0X0X0X0X0X0X0X0X0X0X0X0X0X0X0X0X0X",
"0X0X0XO = j c n Z V j a t.v.r.* 0X0X0X0X0X0X0X0X0X0X0X0X0X0X0X0X0X0X0X0X0X0X0X0X0X0X0X0X0X0X0X0X0X0X0X0X0X",
"0X0X0X$ m P P V V A y w.v.c.s o 0X0X0X0X0X0X0X0X0X0X0X0X0X0X0X0X0X0X0X0X0X0X0X0X0X0X0X0X0X0X0X0X0X0X0X0X0X",
"0X0X0X@ < P ' { ' _ i t.v.<.+ 0X0X0X0X0X0X0X0X0X0X0X0X0X0X0X0X0X0X0X0X0X0X0X0X0X0X0X0X0X0X0X0X0X0X0X0X0X0X",
"0X0X0X0XO = n I ( _ y @.b.e o 0X0X0X0X0X0X0X0X0X0X0X0X0X0X0X0X0X0X0X0X0X0X0X0X0X0X0X0X0X0X0X0X0X0X0X0X0X0X",
"0X0X0X0X0X0XO : n I I v s 8 o 0X0X0X0X0X0X0X0X0X0X0X0X0X0X0X0X0X0X0X0X0X0X0X0X0X0X0X0X0X0X0X0X0X0X0X0X0X0X",
"0X0X0X0X0X0X0X0XO $ n Y I : O 0X0X0X0X0X0X0X0X0X0X0X0X0X0X0X0X0X0X0X0X0X0X0X0X0X0X0X0X0X0X0X0X0X0X0X0X0X0X",
"0X0X0X0X0X0X0X0X0X0XO $ j $ 0X0X0X0X0X0X0X0X0X0X0X0X0X0X0X0X0X0X0X0X0X0X0X0X0X0X0X0X0X0X0X0X0X0X0X0X0X0X0X",
"0X0X0X0X0X0X0X0X0X0X0X0X  O 0X0X0X0X0X0X0X0X0X0X0X0X0X0X0X0X0X0X0X0X0X0X0X0X0X0X0X0X0X0X0X0X0X0X0X0X0X0X0X"
};
