/* XPM */
static char *a7ea1691603248ece586b1725f1dd7bebzSBEGch0o640jbf[] = {
/* columns rows colors chars-per-pixel */
"68 100 253 2 ",
"   c None",
".  c #010100",
"X  c #0D0301",
"o  c #0B0802",
"O  c #140401",
"+  c #1B0502",
"@  c #140A03",
"#  c #1C0903",
"$  c #16090C",
"%  c #1C120A",
"&  c #1E1107",
"*  c #1A0E13",
"=  c #230502",
"-  c #2B0501",
";  c #240A04",
":  c #2C0A02",
">  c #250D0A",
",  c #2B0A0A",
"<  c #330502",
"1  c #3B0403",
"2  c #330B03",
"3  c #3B0B04",
"4  c #3C0B09",
"5  c #350B0A",
"6  c #2B1205",
"7  c #23120A",
"8  c #271308",
"9  c #341104",
"0  c #3C1205",
"q  c #35140A",
"w  c #3B1409",
"e  c #3B1A09",
"r  c #291514",
"t  c #361C14",
"y  c #270814",
"u  c #342110",
"i  c #1C1425",
"p  c #1C0E22",
"a  c #29142A",
"s  c #2D2639",
"d  c #362C38",
"f  c #332E2C",
"g  c #430503",
"h  c #4B0402",
"j  c #440C04",
"k  c #4D0E04",
"l  c #4C0C09",
"z  c #49060A",
"x  c #520502",
"c  c #5B0502",
"v  c #550C03",
"b  c #5A0D03",
"n  c #540D0A",
"m  c #58070A",
"M  c #431304",
"N  c #4B1204",
"B  c #4D1109",
"V  c #471A08",
"C  c #531204",
"Z  c #5B1205",
"A  c #541C05",
"S  c #5B1A04",
"D  c #541B0B",
"F  c #57150A",
"G  c #441714",
"H  c #591916",
"J  c #4E0914",
"K  c #640304",
"L  c #6C0405",
"P  c #640C05",
"I  c #6B0B05",
"U  c #69030A",
"Y  c #730405",
"T  c #7B0505",
"R  c #750B03",
"E  c #7B0C02",
"W  c #73030A",
"Q  c #7B030B",
"!  c #631305",
"~  c #6A1206",
"^  c #631D04",
"/  c #6B1A04",
"(  c #6C1409",
")  c #6C1C0A",
"_  c #621709",
"`  c #751304",
"'  c #7A1505",
"]  c #731904",
"[  c #7C1A05",
"{  c #7C1B08",
"}  c #79180B",
"|  c #760415",
" . c #6E1016",
".. c #4A2409",
"X. c #5C220B",
"o. c #572608",
"O. c #472614",
"+. c #5B2C15",
"@. c #582718",
"#. c #5C3513",
"$. c #642305",
"%. c #6A260A",
"&. c #73240C",
"*. c #742C0C",
"=. c #7A2B0C",
"-. c #7B2308",
";. c #69360B",
":. c #7C3306",
">. c #733309",
",. c #7B330C",
"<. c #7D3A0C",
"1. c #763708",
"2. c #6B2C15",
"3. c #6C2D1B",
"4. c #632915",
"5. c #762A13",
"6. c #673319",
"7. c #773616",
"8. c #531025",
"9. c #710B23",
"0. c #4F302D",
"q. c #682C23",
"w. c #783A25",
"e. c #72342D",
"r. c #7B4314",
"t. c #48433E",
"y. c #784525",
"u. c #6B4634",
"i. c #3B3640",
"p. c #514946",
"a. c #830D05",
"s. c #84030B",
"d. c #8B030C",
"f. c #830808",
"g. c #95030D",
"h. c #9A040C",
"j. c #970B09",
"k. c #841403",
"l. c #841B03",
"z. c #891D03",
"x. c #841D0A",
"c. c #8A1608",
"v. c #941906",
"b. c #840314",
"n. c #890518",
"m. c #94041B",
"M. c #980416",
"N. c #901917",
"B. c #A9080D",
"V. c #B6060E",
"C. c #AA190D",
"Z. c #B9130F",
"A. c #A70315",
"S. c #BC0312",
"D. c #B90517",
"F. c #BB1310",
"G. c #B71812",
"H. c #A61A15",
"J. c #852306",
"K. c #8B2305",
"L. c #8B2C06",
"P. c #852209",
"I. c #8D2609",
"U. c #8C2B0A",
"Y. c #852B09",
"T. c #922406",
"R. c #95250A",
"E. c #9A250C",
"W. c #932C0A",
"Q. c #9B2C0B",
"!. c #952B06",
"~. c #8C3206",
"^. c #84330B",
"/. c #8A380A",
"(. c #93330A",
"). c #9B340A",
"_. c #953A09",
"`. c #9B3C0B",
"'. c #953507",
"]. c #882617",
"[. c #972914",
"{. c #873814",
"}. c #9A3B1E",
"|. c #963716",
" X c #A3280C",
".X c #A2350C",
"XX c #A33C0B",
"oX c #A8310C",
"OX c #A82816",
"+X c #A83A16",
"@X c #B62C17",
"#X c #8C0622",
"$X c #990521",
"%X c #9A3E21",
"&X c #B43423",
"*X c #A10221",
"=X c #C30312",
"-X c #CB0416",
";X c #D30215",
":X c #DB0316",
">X c #DA021A",
",X c #D3061A",
"<X c #CA121A",
"1X c #E3011B",
"2X c #EB001B",
"3X c #E30216",
"4X c #F1001A",
"5X c #D0292C",
"6X c #87440D",
"7X c #9C420B",
"8X c #92440D",
"9X c #884516",
"0X c #944618",
"qX c #96561B",
"wX c #8D5118",
"eX c #A6460D",
"rX c #A94916",
"tX c #B14D19",
"yX c #AD5314",
"uX c #AB5418",
"iX c #B5571A",
"pX c #BA631C",
"aX c #874527",
"sX c #954825",
"dX c #985627",
"fX c #985736",
"gX c #8A5232",
"hX c #A64A24",
"jX c #A65828",
"kX c #B45522",
"lX c #AD5539",
"zX c #BB6827",
"xX c #A56937",
"cX c #BA7638",
"vX c #AA6931",
"bX c #C15E1F",
"nX c #C3621E",
"mX c #C64F37",
"MX c #C46724",
"NX c #C97A39",
"BX c #C67130",
"VX c #916450",
"CX c #B87745",
"ZX c #AC6745",
"AX c #C3704C",
"SX c #DD5D5B",
"DX c #C9833C",
"FX c #BF845C",
"GX c #D28F4B",
"HX c #E4A157",
"JX c #C28573",
"KX c #E5A35B",
"LX c #EBAEA3",
/* pixels */
"                                                      o . . o o . X o .                                                                 ",
"                                                V V o...q t ......o.o.o.V w G 8                                                         ",
"                                          ;.6.+.o.+.+.q.+.@.q.+.6.4.6.3.q.5.q.3.4.e ;                                                   ",
"                                    6 o.$.X.@.@.@.@.@.0.0.@.@.q.q.q.q.6.q.q.q.w.7.7.6...& .                                             ",
"                                  8 o.o.D F H H 0.H @.+.@.4.6.3.e.y.aX9X{.aXaXu.w.aX7.9X7.V @ .                                         ",
"                                0 X.o...D H H @.4.3.3.6.w.gXgXfXZXZXDXNXCXCXCXZXlXdXsXaXaX9X,.G o                                       ",
"                                $.^ A A D 4.%.%.*.<.aXdXvXcXCXDXGXGXHXHXHXHXGXGXGXCXZXZXfXsXsX|.2.9                                     ",
"                              $.~ ) / $.&.5.^.8X0XrXjXzXvXBXBXNXDXDXDXHXGXGXDXAXNXAXBXBXkXlXsXsX0X{.e                                   ",
"                            ;.*.) 5.-.Y.|.%XrXyXyXyXiXzXzXpXcXzXzXpXpXzXzXnXpXpXMXDXBXMXMXzXlXjXsX0X9Xe                                 ",
"                          :.:.^.{.|.}.hXhXrXeXyXiXiXiXiXpXpXzXkXuXeX7X7X`.eXeXyXpXMXMXnXnXnXMXiXkXhXrX6X..                              ",
"                          8X'.'.`.}.XX+XeXeXeXeXeXuXrXuXyXtXuXrX`._._._./.(.`.eXyXnXnXnXbXbXbXbXkXkXkXkXyX>.                            ",
"                        8X7X7X7X|.|.|.).).`.|.).'.7XXX`.`.`.7X`.'.~.~.~.L.Y.'.).eXyXyXiXyXtXiXiXkXkXkXuXyXeX:.                          ",
"                      /.eX7X`.(.U.(.].U.~.~.~.~.~.W.W.L.L.W.~.'.~.~.K.I.J.L.L.(..X.X`.XXXXXXeXrXtXtXtXkXyXtXeX-.                        ",
"                    #.qX7X`.(.^.U.Y.Y.Y.K.J.K.J.L.J.L.K.K.L.~.~.L.L.Y.J.Y.Y.I.U.!.!.).).)..X.XXX+X+XeXtXtXhXrXXX$..                     ",
"                  & 9XyX|.(.U.P.Y.J.{ J.-.J.-.J.l.x.l.J.J.L.J.L.J.J.J.Y.Y.Y.J.I.T.W.!.!.!.!.).)..XoXoXeXrXrXhXXX`.V .                   ",
"                  ..uX7X(.Y.P.P.x.[ { [ [ ] [ [ [ [ [ [ [ J.J.J.J.J.J.-.J.J.z.J.K.J.z.J.T.!.!.W.!..XXXXXXX+XrXXX'._.e .                 ",
"                # /.7X!.J.J.J.[ [ [ ' ' } ' } } ' } [ [ x.{ x.x.x.P.x.P.l.z.l.l.l.z.z.K.K.I.W.W.W.Q.).'.).`.eX7X_.(./.& . .             ",
"                o.8X'.L.J.[ [ [ } ' } ` ` ' E ' [ [ } [ [ } [ k.[ x.x.x.k.z.l.z.l.l.l.z.K.K.K.U.!.W.W.).).).`.8X8X/./.1.@ . .           ",
"                :.~.L.z.-.[ [ ' ' ' ` ` ` R ` } ' } ' ' [ k.[ x.x.x.x.x.l.k.k.l.l.k.l.z.x.K.K.K.I.T.W.W.(.)._.8X0X{./.6X#.o . .         ",
"              ../.~.K.l.[ [ ' ` R R ' ` } ' ' ` [ } ' ' [ } x.x.x.x.x.J.l.K.J.J.z.K.J.z.K.z.J.K.I.U.U.W.(.Q.~._.0X9Xr.6XqXdXO.X         ",
"              ^.^.L.J.l.[ ] ` E ` E ` ` R R } ` [ [ [ ' [ [ x.x.J.P.P.P.K.U.I.I.I.I.I.I.I.K.K.K.U.I.W.W.W.).W.`.|.sX{.<.qXcXvXu .       ",
"              6X/.Y.J.] ] ` ` ` ` E ` ' ` ' ` ' [ [ x.x.J.l.x.J.J.K.I.R.L.W.(.Q.!.W.W.!.!.T.T.T.I.U.L.W.W.U.(.).%XsX{.<.wXjXxXr.. .     ",
"              /.^.Y.-.[ ] ] ~ ` ` ` ' ] ] ' [ l.l.l.l.z.J.J.J.K.I.K.R.[.Q.Q.)..X.XQ.Q.Q.Q.T.T.T.T.T.L.L.~.^.[.|.}.sX{.>.r.wXvXr.o .     ",
"            1.^.~.-.-.] ] ] ] ` ` ' ' l.l.l.l.l.l.K.K.z.K.K.K.K.T.T.E.E.E..XoXoX.X.XQ.E.E.E.T.T.T.T.T.W.U.(.[.|.}.}.|.^.<.6XxXy.X .     ",
"            $./.:.-.{ ' ] ` ~ ` ' [ k.l.l.z.z.K.K.K.T.K.T.K.K.K.T.E.E.E..X)..X).).!.L.!.T.L.T.W.U.U.U.~.U.^.U.|.}.}.|.Y.{.|.dXy.. .     ",
"            <.^.=.-.[ ] / ` ] ` ' [ k.k.l.k.l.z.T.T.T.v.T.T.T.v.R.R.E. XE.Q.).Q.Q.E.E.R.R.E.E.R.E.E.E.W.[.[.|.}.}.%X%XU.P.|.jXy.. .     ",
"            >.=.&.{ } ` ] / ] ` ' [ k.l.z.z.z.z.T.v.v.K.v.T.z.z.v.v.E.E.C. XC.G.F.F.F.F.F.F.F.F.Z.F.Z.Z.G.G.G.G.@X&X&XOX[.|.sXw.o .     ",
"            >.:.*.{ ] ] ] / / ` ' k.k.k.k.z.z.k.z.z.v.v.v.j.v.C.C.C.Z.F.<X<X<X:X>X3X1X>X:X:X:X:X:X:X:X;X;X,X>X,X,X<X5X5X5X&X&X|.O . .   ",
"          @ 1.~.-.&.-.] / ] ` ' [ [ l.[ k.c.v.j.j.j.B.B.Z.V.=X-X;X3X4X4X4X2X4X2X2X2X1X1X>X>X;X;X=X=X=X=XS.S.=XS.D.D.D.5X5X5X5XmX9X% .   ",
"          @ :.~.P.} ] ] ` E ' ' [ } l.c.j.j.B.Z.=X-X;X;X;X>X2X2X2X2X2X2X3X;X,X-XD.D.*Xm.M.d.d.b.T Y L Y W W Q b.#X#X$X&XSXSXSXAXBXu..   ",
"          @ :.^.&.] ) / ` k.a.f.j.h.V.S.=X;X3X3X2X2X2X2X2X1X1X>X;X=XD.A.M.b.| | U m z z z 1 g 1 1 1 1 1 z z z 8.8.q.gXLXLXLXAXlXkXdX.   ",
"          @ ;.<.*.&.{ { ' a.h.B.S.;X3X4X4X4X4X2X:X;X-XD.D.A.M.b.Q L c x g 1 - , = + + + + + O + + - = - , 5 q t f 0.p.p.JXAXlXlXjX9X.   ",
"        . X 1.^.z.a.h.B.B.V.=X;X:X2X2X2X:X-XS.V.h.b.Q U m x g 1 1 < - = = = + O @ X O O X X X o O + + + # > 7 8 t t O.u.VXVXVXfXdXr..   ",
"        . 6 E. XB.V.V.=X;X;X;X-X=X=XB.h.d.L K x h g 1 < - = = = ; # # # + + + + + O O X O X X X X o X o @ @ > > : 6 e @.u.VXVXfXdXr.. . ",
"      . X ( =X=X-X-X=XV.B.B.g.s.Y K x h 1 < - = = + + = + = = , , = = y + @ O + @ O o o X X X X X X X X O @ # = > 6 q u u.fXfXfXdXr.. . ",
"      n a.C.B.B.h.h.s.Y K x h g < - < - - = = # ; + # = = $ = , = = + # & & # # # @ o o X X o X X X O X @ @ # ; ; : q O.0.u.gXfXfX;.. . ",
"    C.C.B.g.Q Y K h g < - = + # # @ @ @ @ @ # & # # + = = # = = ; ; 7 8 & 7 7 % % @ @ @ o X X X X X X X O @ # # ; ; q G #.u.gXfXdX;.. . ",
"    C.B.j.Q x 1 - = + O + + + O @ @ @ @ o % @ @ # = # = # = y = > ; f f f f f i r % % o o o X X X X O X X O + # ; 8 9 e O.6.gXfXdX;.. . ",
"  ).I.-.5.F 9 # @ @ O + @ @ @ # # + & & @ # # # # # ; ; ; > > > > r 0.p.t.t.t.t.f % % @ @ X X X X O X X X O O + ; ; 9 t ..6.y.fXdX;.. . ",
"  /.=.2.+...6 & @ @ + + @ o @ # # @ = = ; ; # > ; ; > # > > > y r r t.t.t.i.t.p.p.f $ $ o X X X X X X X X @ + + = 6 6 t V @.w.gXdX;.X . ",
"_./.*.@.+.V 6 # = # O O + # # # # # # = = # = y , > & % 8 9 q G 8.8.0.0.s d s i.p.s $ o X X X X X O X X X O O + = ; q q u O.w.9XsXwX% . ",
"<.0X*.X.o.V 6 ; # + O # O # # = # # # > > > > > 8 > & 8 4 J | #X$X#X#X8.a s s i.s i * X X X X X X X X X O $ + O # : 9 t u O.#.7.8XjXt . ",
";.8X>.o...M 6 ; = + + O # # # # ; ; > > y > 8 > 7 % > < m | *XM.m.#X#X#X8.a a s a i $ $ O X X X X X X X X @ O + = : q q u O.+.5.|.rX+.. ",
"  9X<.2.D N : ; + + @ # + # # # # 7 > > > > > > % > , z | m.m.s.W | #X#X9.8.p a i p $ X X X X X X X X X O X O + # ; , q G O.o.&.).rXD . ",
"  r.9X3.4.D 9 ; + O O @ + # # # # > > > > > > > > , 5 z b.m.T L K L b.m.$X9.a y i p $ X X X X X O X X X X @ O + = ; 6 q V F ) P.+X+XA   ",
"  1.6X7.3.@.e : + + + # + # # # ; ; > ; > > > > , 2 1 m #XM.T K K L T M.A.#XJ y $ $ $ o X X X X X X X X O O + = ; ; , q B ( x.[.+X+XA   ",
"    <.7.4.o.V 9 = = # # # # + = > ; > > > 8 > > y , 1 U m.s.Y L Y W Y f.M.*X| 1 y $ X o X X o X X X X X O + = = + # : M L N.OX@X+X`.A   ",
"    <.7.6.+.G q ; + + @ # O # = ; : > ; ; , > > > r z W m.s.T T R R T a.m.*X#X9.< $ $ X X X X X O = + O @ X X @ - g K Q f.OX@X@XXX/.;   ",
"    >.<.3.+.V q = + + @ # + + = ; : ; > ; > 8 > 7 8 l b.g.f.T R E E E f.d.m.$X#Xz y O O o . o X X O O O O + = 1 U b.h.A.C.@XOXoX8X1.X   ",
"    o.{.3.4.@.q - = # O @ # # = ; ; ; ; > : > 7 & > m d.h.T L Y a.a.a.a.f.d.g.m.| z - + o o X X X o O - g x W d.A.A.B.H.OXOX+X`.6Xr..   ",
"    0 8X*.2.O.9 ; = # @ + # + + = - = = # = = = # 2 U M.d.L P R k.a.k.a.a.f.s.d.m.b.U z < = = < < g J | n.M.A.A.A.M.N.[.(.}.0X6Xr.e     ",
"    @ >.,.2.@.0 : ; # # @ @ # + + # + + + + = = - g Q g.f.K P R k.a.c.a.c.a.T Q n.$Xm.| 9. .| | n.m.m.m.M.A.g.b.} &.=.{.{.9XwX9XqXy.    ",
"    . e ,.*.#.V 2 - ; = O @ @ # # # O O @ O - < m W b.Q U K R E a.k.k.k.c.c.( P L W Q b.d.m.d.g.n.b.Q W R ( ( ) &.&.5.=.{.8XwX9XvXxX    ",
"      . V %.o.V 9 ; # # + = + + + + o o X @ + < U n.Q W K P R R a.k.k.k.c.c.' U K K K U U L W W W U U I I ( ( ) ) &.&.=.^.{.sX9XvXGX    ",
"      . . 9 o.S M < - ; @ O @ @ @ X + = = 1 1 m | Q L U c P R E E k.k.k.c.c.} I ! n n x x n v v x n b b I ( ( ) &.) &.=.7.9XdXwXcXKX    ",
"        . . X M ~ I P c x h h x x x K L Q b.s.s.L U K c K P R E E a.k.c.z.N.c.} ( Z n l j z j j l n n Z P P ~ ~ ) &.&.5.=.{.sXdXGX      ",
"          . . X / z.N.s.g.h.h.h.h.g.g.g.M.d.s.Y K c c c K R R E a.' k.k.z.v.N.N.}  .) _ m z l k n n n Z P ! ~ P _ ) %.&.=.{.sXdXDX      ",
"            . . 2 x.k.a.s.T f.T f.T Y Q W L c x x x h v I R R E E E k.k.z.R.[.OXN.#X5.9.P c n b m m b Z Z P ! ! ( ( ] &.=.{.aXdXDX      ",
"              . ; *.^ _ ! Z Z b b b b b b v x v h k c P I I R R E E E k.c.N.H.[.[.[.].N.P b v v Z v b Z Z Z ! ! ! ! / %.5.,.9XqXqX      ",
"              . o $.%.Z Z Z b v b C v C b v x x x x b P R R T R E E E E a.c.c.x.].N.5.} ( b v b Z v b b Z Z b ! ! ^ $.&.*.7.9XqX#.      ",
"                . o.%._ Z C v v C v v b b v c x c b I I R R R R R E R R R I R ( ~ I ~ ~ ! b b v v v v C Z Z Z ! ! ^ ^ *.*.,.9XwXu       ",
"                  0 $.Z Z C C N k v v v v v x v P P P I I K P I I I I P b b c x x v v b b b Z v v Z v Z Z b Z S S ^ ^ $.*.,.<.6X..      ",
"                    $.! A C C k v k b x v v c v b b b c v c v n v v v v k h h g g j k v Z v C b Z v v Z Z Z Z Z S S X.$.*.=.<.6Xo.      ",
"                    $.^ C C C k k N v c v v v v v b x k h g g j j j j g g 1 1 1 3 3 j v C v v b v v b C C Z Z S S S $.$.%.>.<.9Xo.      ",
"                      $.A C v k N v x C v b b x Z l g 1 < 1 < < < < < < < 2 5 < < 5 l k n F n F v l n C C v C Z S ! ^ $.*.,.7.<.o.      ",
"                        S C N N v k v v v b b v k j 1 < < - - - - - < < - , - < 3 4 j l l n Z v F N N n B C C C S S X.$.%.5.5.<....     ",
"                        A C C v k k v v v C C v l g 1 < - - - - - - - - - : - < 4 4 j l B N k v v N N C N N C C S S X.4.2.3.3.7....     ",
"                        C C C N k k v C C C C v g j < - - - = - = - - - - - < 5 5 4 j j j l j C B N N N N B B N A A S $.%.4.2.>.;.o     ",
"                        S C C k C k v N C C v j g 1 < - = = , - - = - - ; - : < 5 4 3 4 g j j N N N N N N N B N C D X.A $.4.4.2.;.o     ",
"                        S C C k v k N C C C N g j 1 < - = = = = = ; = = - - < < 5 4 3 3 3 4 j N j M j M M N B N V A A o.D @.X.;.;.@     ",
"                        A S k l N M N k j N j j < < < - < - < - - - - - - - : 2 5 2 3 3 0 0 j 4 0 M M M M M M M N A V A D O.@.4.;.@     ",
"                          X.D B M N k j j M 3 3 < < - < - - < < < < - < - : < 2 3 5 0 w 0 4 w w 3 3 0 M 0 M M M M V V A V D X.%.;.o     ",
"                          o.F l M N N N j M 3 < < - - - < - < < < < 2 < < 2 3 3 4 w M w w 0 0 0 0 0 0 0 0 3 0 0 M M M V M V ..X.:...    ",
"                          : C N l M j j 3 3 < < < < < < < < < 1 < 3 3 3 3 3 3 3 3 4 w 0 0 0 4 3 3 9 0 2 9 0 0 3 0 M 0 V M V D S ^.eX    ",
"                          O N B B j M 3 3 < < < - < < - < 5 3 1 1 j j 3 3 1 1 3 j 3 3 < 3 3 3 2 9 9 9 2 2 9 0 2 e 0 0 V V M V C K.eX    ",
"                            2 n B M j 3 3 2 < : < - - < < < < 1 3 1 1 1 3 j 3 j j j 3 < < 5 < 5 2 : 9 : 6 2 2 9 9 9 e e M M M C z.G.    ",
"                            2 G t q 5 2 2 : : : : : : : : - < < < 4 4 4 4 w 4 w 5 3 , : - 2 2 2 < 6 2 6 2 9 9 9 9 0 9 q 3 0 0 C x.C.    ",
"                              B G 5 2 2 < : : 2 2 : < < : - - - - q w q q , q 6 : : - - - - - , - 2 : 2 : 2 : 9 9 9 9 9 5 0 0 N x.      ",
"                                M 0 9 : : : : : : : : : : - = = ; - > : ; ; = ; = + = - - - < - : : : < : : : 2 9 2 9 9 2 2 9 C x.      ",
"                                0 0 9 : : 2 : < : : - : - - = + + O + O + + + + + + - - - < 5 5 : - - : 2 : 2 : : 9 9 2 2 : 9 o.[       ",
"                                M 0 9 2 < : : : : : - : - - = + + + + + + = = + = + - < < 1 5 5 < : - : : : : : : 2 9 2 2 6 9 S )       ",
"                                  V 9 2 : - : 2 - : - - - = = = + = = + = = = = - - < < < 3 j 4 2 : - : : : 2 2 9 2 9 6 9 6 e ..        ",
"                                  9 0 9 9 5 - : ; ; - - - - - - - - = - - - - - - < < < < 3 3 2 : : : ; : ; ; 6 : : : : 6 : e @.        ",
"                                  @ 0 9 6 : - ; ; = ; - = - - - - - < < < < < < < 3 < < 2 2 2 < : : 6 ; ; 8 ; 6 ; > 8 : : 2 ..          ",
"                                    6 9 6 ; ; # # ; = - - - - : 2 : < 3 < < < < < 3 2 2 2 2 2 2 : : : ; ; 8 ; ; : : : ; - 6 O.          ",
"                                    @ 9 6 : # # # = ; - - - - : : < < < < < < 3 < 2 : : : : : : : : : 6 ; & ; ; ; ; - ; ; 9             ",
"                                    @ M 3 - = # # = ; = - - - - 2 < < < 2 3 < < < < : : - : ; : : - ; ; ; 8 ; - ; ; ; ; > 9             ",
"                                    - C 3 - = + + = = - = - - ; : < < 3 < < < < < < : - ; - ; - ; ; : ; ; # ; ; - ; - ; :               ",
"                                    ` P j - = = = = = = = = = - - - - - - - - - - = = = = = = = = # + # # # # = ; = ; ; :               ",
"                                      L h - = = = + + = = = = = = = = = = - - = = + + + + + + + + # # + + # # # # = = =                 ",
"                                      a.x < = O + + + + + + + = = + = + = = + + + + O + O O O O + # # # # + # # ; # =                   ",
"                                        L g = @ O + + O O O + + + + + + + = + + O O + O O O O O O O + + # + # @ # +                     ",
"                                          x - + O O O O O O O + O + O + + + + + O O O O O @ X @ O + O + O # O # ;                       ",
"                                            < - O O O O O X O O + O + O + + + O O O O X X O O X O O O O O + @ O                         ",
"                                                O O O O + O O O O O O O + O O O O O X X X X X X O O O + O + +                           ",
"                                                    O O O + O O O O + + O O + O O O X X X X X X X O O O O O                             ",
"                                                        O O O O O O O O O O O O + O O X X X X X X O O O O                               ",
"                                                            O O O O O O O O O O O O X X X X X X O O O                                   ",
"                                                                O O O O O O O O + O O X X X X X                                         ",
"                                                                          O O O O O O X X X                                             "
};
