/* XPM */
static char *_ab9bcd5bd554656c64fbd347ec70350yfNtYyCiNhBhNK1b[] = {
/* columns rows colors chars-per-pixel */
"71 100 182 2 ",
"   c None",
".  c #030403",
"X  c #0B0C06",
"o  c #030608",
"O  c #020B0D",
"+  c #0C0C0C",
"@  c #060907",
"#  c #0F1007",
"$  c #14140A",
"%  c #17180C",
"&  c #1B1C0E",
"*  c #030E11",
"=  c #0F0F10",
"-  c #041216",
";  c #05161B",
":  c #06181D",
">  c #0F1E1E",
",  c #131313",
"<  c #1C1C13",
"1  c #171718",
"2  c #1B1C1C",
"3  c #1D2217",
"4  c #20210F",
"5  c #222312",
"6  c #272815",
"7  c #2B2C16",
"8  c #23241A",
"9  c #2C2D1A",
"0  c #2F301A",
"q  c #2F3017",
"w  c #33341A",
"e  c #37381C",
"r  c #3B3C1D",
"t  c #303116",
"y  c #051D22",
"u  c #081E25",
"i  c #1F1F20",
"p  c #151E21",
"a  c #201F21",
"s  c #052126",
"d  c #05262B",
"f  c #09242C",
"g  c #092325",
"h  c #132B2E",
"j  c #1C362E",
"k  c #062D32",
"l  c #0B2C34",
"z  c #0C2B35",
"x  c #0B3137",
"c  c #0C343C",
"v  c #09353B",
"b  c #13393B",
"n  c #222223",
"m  c #272728",
"M  c #2C2C2E",
"N  c #292825",
"B  c #2B3825",
"V  c #3C3F22",
"C  c #353928",
"Z  c #3E3E3E",
"A  c #223C36",
"S  c #3F411F",
"D  c #3F4021",
"F  c #22413F",
"G  c #41421E",
"H  c #434522",
"J  c #464924",
"K  c #4B4C26",
"L  c #43442A",
"P  c #4C4E2B",
"I  c #4E5127",
"U  c #4F5128",
"Y  c #53542A",
"T  c #57592C",
"R  c #5B5D2D",
"E  c #454733",
"W  c #4C4D33",
"Q  c #474738",
"!  c #5E5F30",
"~  c #525338",
"^  c #5E612F",
"/  c #5F6130",
"(  c #60622F",
")  c #636532",
"_  c #666934",
"`  c #6B6D36",
"'  c #6D6F38",
"]  c #6E7037",
"[  c #6F7138",
"{  c #707239",
"}  c #0F3642",
"|  c #0B3C44",
" . c #113C4A",
".. c #0E4047",
"X. c #0C444C",
"o. c #0F484F",
"O. c #11434D",
"+. c #10484F",
"@. c #0E4C54",
"#. c #134555",
"$. c #104B53",
"%. c #144758",
"&. c #144B5B",
"*. c #12545D",
"=. c #235258",
"-. c #164F61",
";. c #175265",
":. c #18566A",
">. c #1A596D",
",. c #175468",
"<. c #1A5E74",
"1. c #1B6077",
"2. c #1C647B",
"3. c #434341",
"4. c #4E4F42",
"5. c #4A4A4B",
"6. c #4F5040",
"7. c #525344",
"8. c #55564B",
"9. c #5A5A4A",
"0. c #5C5C5C",
"q. c #545454",
"w. c #67675D",
"e. c #6C6D65",
"r. c #6C6C68",
"t. c #7E7E7E",
"y. c #777772",
"u. c #717169",
"i. c #82827D",
"p. c #1E6A82",
"a. c #1F718B",
"s. c #20748E",
"d. c #217087",
"f. c #217692",
"g. c #227995",
"h. c #237D9B",
"j. c #24809E",
"k. c #2584A4",
"l. c #278AAB",
"z. c #288EAF",
"x. c #288FB0",
"c. c #2993B5",
"v. c #2A96B9",
"b. c #2B9ABE",
"n. c #2C9CC1",
"m. c #2DA1C6",
"M. c #2EA5CB",
"N. c #2FA8CF",
"B. c #2FABD2",
"V. c #30ADD5",
"C. c #31AFD8",
"Z. c #31B2DB",
"A. c #33B6E1",
"S. c #33B9E4",
"D. c #35BDE9",
"F. c #36C1EE",
"G. c #37C6F4",
"H. c #37C8F6",
"J. c #38C9F7",
"K. c #38CAF9",
"L. c #828281",
"P. c #8B8B8B",
"I. c #898984",
"U. c #949593",
"Y. c #9A9A99",
"T. c #A4A4A3",
"R. c #AAAAA9",
"E. c #A8A8A7",
"W. c #B5B5B5",
"Q. c gray74",
"!. c #C3C3C3",
"~. c #CCCCCD",
"^. c #D4D4D4",
"/. c #DBDBDC",
"(. c #E7E7E8",
"). c #ECECED",
"_. c #E6E6E7",
"`. c #F3F3F3",
"'. c white",
"]. c #FEFEFF",
"[. c gray99",
"{. c #FFFFFF",
/* pixels */
"                                                                  . @ + = = = = + @ @                                                         ",
"                                                                    @ + 2 n a n i i 2 1 , +                                                   ",
"                                                                        @ , a n n n a 8 a 2 1 = @     .                                       ",
"                                                                          . , a a n m n n n n a 1 +   . + @                                   ",
"                                                              @ + , 1 1 2 1 , 2 n a m M M m n m n a , @ + 2 =                                 ",
"                                                            = 1 n n n n a n n a n n a M M M M M n n n 1 + , a ,     .                         ",
"                                                          @ = = , 2 a n n n n m m m M M M M M M M M n n i 1 n n ,   + =                       ",
"                                                          . @ , 2 n m m M M M M M M M M M M M M M M M m n a n a n + @ i ,                     ",
"                                                        @ , a m M M M M M M M M M M M M M M M M M M M M M n n n n 2 @ a a +                   ",
"                                                      + 2 n m M M M M M M M M M M M M M M M M M M M M M M M m m a n 1 2 n 2 @                 ",
"                                                    + 2 m M M M M M M M M M M M M M M M M M M M M M M M M M M M n n n n n a ,                 ",
"                                                  + 2 m M M M M M M M M M M M M C M M M M M M M M M M M M M M M m n n a n a 2 @               ",
"                                                  1 m m M M M M M M M M M M M M M M M M M M M M M M M M M M M M M m n n n n a +               ",
"                                                = n 1 = M M M M M M 2 1 M M m a M M M M M n M M M M C M M M M M M M m a a n n ,               ",
"                                                1 , . , M M M n 2 w H 2 M n 4 2 M M M m 8 , m M M M M M M M M M M M M m n n n 2               ",
"                                              @ +     a M m , @ S { ! 8 m 0 R 8 M M m N ! 0 m M M a M M M M M M M M M M n n n 2 @             ",
"                                              . .     2 2 @   w [ { ! < 8 _ [ 8 m 8 r ` [ 9 m m 2 , M M M M M M M M M M M a n a +             ",
"                                              .       @     & ) { { ) % Y { { e 1 D [ { [ C n 8 P 8 a M M M M M M M M M M M n a +             ",
"                                                            9 R ` { ` r ' { { J % J ~ W P 5 < T _ & = M M M M M M M M M M M n a 1 +           ",
"                                                      % w D J G e J ) ` { { ` L r.W.^./.W.3.7 _ _ 6 6 n 2 M M M M M M M M M m n n a 1 @       ",
"                                                    9 R { { { { _ P w ! { ` W R.].'.'.'.'.~.T.E ! R H 2 , M M M M M M M M M M m n n n 2 =     ",
"                                                  w ` { { { { ] [ { T w _ P E.'.'.'.'.'.'.'.'.T.L [ Y , = n 1 M M M M M M M M M m n n a 2 +   ",
"                                                4 ) { { { { { { [ { { J t u.[.'.'.'.'.'.'.'.'.[.e.T ) & < + 2 M M M M M M M M M M m a a n 1   ",
"                                                H { { ] { { { { { [ { ` 8 Q.].'.'.'.'.'.'.'.'.'.Q.L ) H S & m M M M M M M M M M M M m 2 2 a @ ",
"                                              $ R { { { { { { { { { { { W /.!.t.`.'.'.'.'.'.'.'.(.~ ) ' ! 8 M M M M M M M M M M 1 a M a + 2 = ",
"                                              & ) { { { { { { { { [ { { P !.t.= /.'.'.'.'.'.'.'.[.w.! { K 1 2 m M M M M M M M M m @ 2 n + = + ",
"                                              < ( _ ) R R ^ ( _ ' [ { { P Q.~.P.`.'.'.'.'.'.'.'.].r.T [ e 9 5 m M M M M M Z M M M 1 @ n = . . ",
"                                              % ~ u.y.i.I.i.y.w.9.Y T _ W ^.'.'.'.'.'.'.'.'.'.'.[.e.R [ ` [ e m C M M M M M M M M m . , =   . ",
"                                                Y.'.'.'.'.'.'.[./.E.U.9.Q (.'.'.'.'.'.'.'.'.'.'.).7.! { { { C m M M M M M M M m 1 m = . @     ",
"                                                q.).'.'.'.'.'.'.U.2 ~.E.N ~.'.'.'.'.'.'.'.'.'.'.~.L ` { { [ 0 m M M M M M M M m @ 1 1         ",
"                                              & r I.[.'.'.'.'.'.W.0.W.7.G L.'.'.'.'.'.'.'.'.'.'.i.K [ { { [ 0 m M M m m M M M m   @ +         ",
"                                            X K ` J t._.'.'.'.'.'.Q.4.J I C !.'.'.'.'.'.'.'.'.!.L ) { { { [ 9 n a N 0 9 8 a M a     .         ",
"                                            H ' { ` K 4.I.W.Q.T.u.C w ( ! r 7.~.[.'.'.'.'.'.~.Q T [ { { { ' 6 6 Y ` [ [ _ H 2 +               ",
"                                          e ' { { { { ( K H V w 7 e ) { ' r K W Y./.`.`./.U.E Y [ { [ { [ [ ! ` { ' ` ` [ [ K &               ",
"                                        6 ` { { { ) R T K G w r Y [ { { { T r ( J E 8.8.E H ^ ] { { { { { { [ ' _ / ^ ^ ^ _ { J               ",
"                                      & R { { { { ` R T T T H ' ! T { { { { J r _ ` ( ! _ ] { { [ { [ { [ { { ` / R R R R R ` ^ $             ",
"                                      J { { { [ { { { { ' w 7 { w 7 { { [ [ [ U e Y ' { { { { { { { { { [ { [ { [ _ ) R ^ ^ ' _ 5             ",
"                                    7 ` [ { { { { { ' ` 6 . H R X # ) { { { { { _ K J R ' { ' _ [ { { [ { { [ { [ { [ ' ` ] { / $             ",
"                                  $ T { { { { [ { { { T w 7 R w . . J { { { { { { { [ ` ' { ) R ` { { { { R e ) { { { { { { ` w               ",
"                                  r { { [ { { { { { { { { { ` w w H ! { [ { [ { { { ' ( ` { ' ` [ [ [ { ' q   5 H ! _ _ ) Y 7                 ",
"                                $ Y ] { { { { { { { { [ { { { { { { { { { { { { ] { _ R _ [ { { { { { { Y           & 5 &                     ",
"                                  5 w w V P Y T ! _ ` ` ' { { { { { { { { { { { { { { ' [ { [ _ ' { { [ w                                     ",
"                                        5.W.R.U.3.$ 9 7.~ W W K Y R R ) _ { { { { { { { { [ ` R ) { { / $                                     ",
"                                        P.'.'.'.L.  0.(._.^.!.0.  8 u.e.9.C w r K I T ! ` [ [ _ ' { { J                                       ",
"                                        W.'.'.'.L.  P.'.'.'.'.y.  q.).'._.5.  X r I J e D { { { { { [ w                                       ",
"                                        r.L.t.t.3.  L.~.!.~.!.5.  r.[.'.`.q.    5 ) { T J { { { { { _ 4                                       ",
"                                                                  0.Q.!.W.Z       q ` K 7 e _ { { { ! $                                       ",
"                                                                                    r T Y r R { { { Y                                         ",
"                                                                                      I { Y r T T H 7 X                                       ",
"                                                                                      < ) [ Y H V G w > O                                     ",
"                  & X                                                                   w { { { H A d.k.f                                     ",
"                7 ) w                     : u f z z c c } }  . . . . .} c c z f u u     X r r 8 >.C.F.b.c                                     ",
"              & T ' Y             X @ <.b.n.m.V.V.Z.Z.A.A.S.D.S.S.S.S.S.Z.Z.Z.C.M.m.b.z.k.s.<.&.&.D.Z.v. .                                    ",
"              $ K ` ` 5     % e Y T U =.D.K.G.K.G.G.J.G.G.G.G.G.G.G.G.G.G.G.J.J.J.J.J.J.K.K.K.C.<.D.m.b.%.                                    ",
"                r ( R 5 & H ) [ { { { J g.J.G.G.G.G.G.G.G.G.G.G.G.G.G.G.G.G.G.G.G.G.G.G.D.D.Z.h.d.S.b.b.,.                                    ",
"      V K D w 5 5 t w P ` { { { { { ` S h V.G.G.G.G.G.G.G.G.G.G.G.J.G.G.G.F.F.F.S.V.n.c.k.f.a. .z.V.b.n.<.                                    ",
"    7 ' { ` _ _ ) ( ] { { { { { { [ r .   2.G.G.J.J.J.G.G.G.F.F.D.S.Z.C.M.M.m.n.b.v.v.v.b.b.b.-.M.n.b.n.p.                                    ",
"  $ R { ` e 7 e ( { { [ [ { [ { { I X     u l.m.v.x.z.c.b.M.M.m.n.b.b.b.b.b.b.b.n.n.n.n.x.h.1.-.C.n.b.n.f.                                    ",
"  e ] ] J @ . w ` ] ` ) _ [ { { ) &         : &.p.g.l.c.v.b.b.b.b.b.b.b.b.b.n.n.v.k.p.:.-.<.h.M.V.b.b.n.h.:                                   ",
". 5 H I &   $ R _ Y e t ^ { { ` 7           * 2.n.n.n.b.b.b.b.b.b.b.b.n.n.v.k.2.-.:.s.b.A.G.K.F.n.b.b.b.l.u                                   ",
"    X $     & ) ) 5   % T [ { H @         - f.>.k.b.b.b.b.b.b.b.n.n.v.h.<.#.} h.M.F.K.J.G.G.G.S.n.b.b.n.x.z                                   ",
"            4 ) _ 6   $ Y [ _ &         4 C =.f.<.b.b.b.b.b.n.v.j.<.%.&.p.1.2.J.G.G.G.G.G.D.G.C.n.b.b.b.v.}                                   ",
"            & ( ` w   # I ] ) %     $ J _ { T F  .f.n.n.v.k.1.%.&.p.k.b.m.2.h.K.G.G.G.G.F.Z.G.V.b.b.b.b.b.#.                                  ",
"            & ^ ] S . . H ` ) &   % U { { { ! 4 o c k.2. .#.2.k.v.n.b.b.n.:.b.K.G.G.G.G.S.V.F.m.b.b.b.b.n.:.                                  ",
"            $ U R H X . 4 T ] K # I { { { { r     o - f 1.v.n.b.b.b.b.n.z.%.Z.G.G.G.G.G.C.M.D.n.n.b.b.n.n.1.                                  ",
"              $ % % .   & 5 G ` G w ` { { ` 6         #.c.n.b.b.b.b.n.h.z  .D.G.G.G.G.G.M.m.A.b.b.b.b.b.n.s.                                  ",
"                        X 5 & w r & K { { R $           #.l.n.b.n.b.a.f   <.G.G.G.G.G.G.v.n.C.b.b.b.b.b.n.h.:                                 ",
"                  5 q S K T _ K K ^ ` { { H               } h.n.c.>.;     g.K.G.G.G.G.G.z.n.M.b.b.b.b.b.n.l.z                                 ",
"                w _ ] ) T T ] [ ` ^ ` { ' 7                 z 2.%.        c.J.G.G.G.G.F.h.n.n.n.b.b.b.b.b.c.}                                 ",
"                J { ) 6 # H [ ) r e _ { ( %                             f V.J.G.G.G.G.D.f.b.n.b.b.b.b.b.b.b.%.                                ",
"              # R { I X X Y _ e . $ Y ] _ &                              .D.V.l.G.G.G.A.s.b.b.b.b.b.b.b.b.b.:.                                ",
"              & ^ _ r     K ` S     e _ [ r                             <.n.c ;.G.G.K.N.>.v.b.b.b.n.b.b.b.n.p.                                ",
"              X 7 w &     q ` ^ 5   % T ` ) e $                          .| v ;.J.Z.h.O.d a.n.n.n.c.v.b.b.b.g.-                               ",
"                          & R ' H     5 S T _ I &                       O O.@.O.f. .v $.$.} l.n.h.} O.f.b.n.k.f                               ",
"                            J ` T 5       $ 6 6 X                       O | $.g v $.*.;.*.| $.1.x O.O.x %.j.c.c                               ",
"                            4 e 5 #                                       d *.*.*.*.*.*.*.*.v k $.*.*.*. .x -.z                               ",
"                                                                          - | @.*.*.*.*.*.*.*.*.*.*.*.*.*.| O o                               ",
"                                                                            ; ..$.*.*.*.*.*.*.*.*.*.@.@.X.s                                   ",
"                                                                              ; v X.o.*.*.*.*.@.@.X.X.| s                                     ",
"                                                                                - s ..*.*.*.*.X.X.v k ;                                       ",
"                                                                                    $.*.*.*.b s ; *                                           ",
"                                                                                    *.*.*.*.v v                                               ",
"                                                                                  c *.*.*.o.o.@.k                                             ",
"                                                                                  } *.*.*...@.*.|                                             ",
"                                                                                  O.*.*.*.| $.*.X.k                                           ",
"                                                                                  +.*.*.@.| *.*.@.v                                           ",
"                                                                                  ..$.*.X...*.*.*.| s                                         ",
"                                                                                  C j $.| v *.O.o.x y                                         ",
"                                                                                  ( D @.| g $.g b 9                                           ",
"                                                                                  F b @.v   |   3 J 4                                         ",
"                                                                                x $.*.@.x   g   3 T D                                         ",
"                                                                                | *.;.@.k         ^ ^                                         ",
"                                                                1 m m a 1       +.*.*.*.v         H ` I                                       ",
"                                                              2 M m a m m 1     $.*.*.*...        K ] ` T w                                   ",
"                                                              n a a 8 a n n 2 2 h b $.*.X.d     Y ` ` _ ^ S                                   ",
"                                                            , 2 a 8 a h n n n n n 2 h +.X.j T _ _ T G S e                                     ",
"                                                            + , 1 1 2 2 n n n n h a a i p C { ) Y w                                           ",
"                                                                  , , , , 1 2 2 a a a a a w Y G                                               ",
"                                                                            = , $ N M 1 2 ,                                                   ",
"                                                                                  0 6 = ,                                                     "
};
