/* XPM */
static char *result[] = {
/* columns rows colors chars-per-pixel */
"66 100 215 2 ",
"   c black",
".  c #1F1F1E",
"X  c #201F1F",
"o  c #20201F",
"O  c #3E331F",
"+  c #1D1E22",
"@  c #1F2022",
"#  c #232323",
"$  c #272728",
"%  c #272828",
"&  c #2B2B2C",
"*  c #2A2823",
"=  c #312E25",
"-  c #393629",
";  c #2E2F31",
":  c #2F3032",
">  c #323335",
",  c #3D3B34",
"<  c #353639",
"1  c #36393B",
"2  c #3A3B3D",
"3  c #383733",
"4  c #4C3B1E",
"5  c #46371D",
"6  c #463A22",
"7  c #453924",
"8  c #423F33",
"9  c #5B441C",
"0  c #56421E",
"q  c #644A1C",
"w  c #66491A",
"e  c #72521A",
"r  c #785B1A",
"t  c #6A551D",
"y  c #4B4227",
"u  c #564926",
"i  c #59532B",
"p  c #454335",
"a  c #47443A",
"s  c #544B39",
"d  c #5D563D",
"f  c #624A21",
"g  c #685726",
"h  c #735724",
"j  c #676327",
"k  c #796B37",
"l  c #71652A",
"z  c #776119",
"x  c #3C3E41",
"c  c #3E4144",
"v  c #354948",
"b  c #3B6763",
"n  c #414345",
"m  c #43464A",
"M  c #46494D",
"N  c #494B4E",
"B  c #4A4945",
"V  c #514F4C",
"C  c #57554B",
"Z  c #4B4E53",
"A  c #474B52",
"S  c #4E5156",
"D  c #4F5258",
"F  c #525354",
"G  c #505359",
"H  c #55595E",
"J  c #5D5B58",
"K  c #665F42",
"L  c #67645C",
"P  c #79755D",
"I  c #565A61",
"U  c #595D64",
"Y  c #5A5F68",
"T  c #5C6167",
"R  c #5E636A",
"E  c #507775",
"W  c #61666C",
"Q  c #64686F",
"!  c #6B6A66",
"~  c #6E706F",
"^  c #7D7A66",
"/  c #74726C",
"(  c #78756E",
")  c #676C73",
"_  c #696D74",
"`  c #626770",
"'  c #6B7077",
"]  c #6D727A",
"[  c #677678",
"{  c #7D7A74",
"}  c #71767E",
"|  c #777876",
" . c #706F6D",
".. c #855B16",
"X. c #876619",
"o. c #966815",
"O. c #967419",
"+. c #8C731E",
"@. c #A16D14",
"#. c #A77715",
"$. c #B87B10",
"%. c #867438",
"&. c #817323",
"*. c #C07E0F",
"=. c #817E78",
"-. c #887F61",
";. c #8A7C46",
":. c #4C837E",
">. c #9D811C",
",. c #A78517",
"<. c #B88714",
"1. c #BD9B17",
"2. c #968D22",
"3. c #B79624",
"4. c #AB942B",
"5. c #BEA23D",
"6. c #B5AA22",
"7. c #CB840E",
"8. c #C9860F",
"9. c #D28E0F",
"0. c #C68A11",
"q. c #C99614",
"w. c #DB9C11",
"e. c #D49711",
"r. c #C9A319",
"t. c #DBA614",
"y. c #D8B61C",
"u. c #E6AC13",
"i. c #E7AB13",
"p. c #EEB113",
"a. c #E7B719",
"s. c #F5BC13",
"d. c #F6BC13",
"f. c #E0A10F",
"g. c #C8BA21",
"h. c #D6B52A",
"j. c #CBAA35",
"k. c #C7A638",
"l. c #D3AC2E",
"z. c #E8BB21",
"x. c #E3BE37",
"c. c #DBC31F",
"v. c #FCC514",
"b. c #FFCA15",
"n. c #F3C21A",
"m. c #F8C419",
"M. c #FFD41A",
"N. c #FFD81A",
"B. c #FFE31E",
"V. c #D7C822",
"C. c #F9D128",
"Z. c #F9E622",
"A. c #8C835C",
"S. c #86805F",
"D. c #978A56",
"F. c #998A44",
"G. c #AB9547",
"H. c #B69E44",
"J. c #A19050",
"K. c #868279",
"L. c #8C856B",
"P. c #BDA752",
"I. c #CDB55A",
"U. c #757A82",
"Y. c #797E86",
"T. c #787D86",
"R. c #4D8F89",
"E. c #7C828B",
"W. c #798B8B",
"Q. c #639996",
"!. c #58AEA6",
"~. c #74A6A3",
"^. c #51A49C",
"/. c #5DC8BD",
"(. c #61C7BC",
"). c #6DDBCF",
"_. c #7EF6E6",
"`. c #80868F",
"'. c #898882",
"]. c #97948D",
"[. c #818790",
"{. c #848A93",
"}. c #888E98",
"|. c #8C929C",
" X c #839998",
".X c #9D9991",
"XX c #999691",
"oX c #928F88",
"OX c #A19D94",
"+X c #A7A49B",
"@X c #939AA4",
"#X c #959CA6",
"$X c #8F96A0",
"%X c #9DA4AF",
"&X c #9EA5B0",
"*X c #8FAAA9",
"=X c #ADA9A2",
"-X c #B5B2AB",
";X c #A1C0BF",
":X c #B3D7D5",
">X c #98FFEE",
",X c #98FFF1",
"<X c #88FCEB",
"1X c #A6FFEC",
"2X c #ABFFEE",
"3X c #A9FFF3",
"4X c #B4FFF3",
"5X c #BBFFF6",
"6X c #BBF4EC",
"7X c #AFE2DB",
"8X c #CAFFFB",
"9X c #C5FEF8",
"0X c #D3FFFD",
"qX c #C0EAE8",
"wX c None",
/* pixels */
"wXwXwXwXwXwXwXwXwXwXwXwXwXwXwXwXwXwXwXwXwXwXwXwXwXwXwXwXX # & > c N J W Q ) Q W I Z x > % X . wXwXwXwXwXwXwXwXwXwXwXwXwXwXwXwXwXwXwX",
"wXwXwXwXwXwXwXwXwXwXwXwXwXwXwXwXwXwXwXwXwXwXwXwXwX# $ & x F T ) } } } U.T.Y.`.{.|.$X$X|.Y.) S 1 % # wXwXwXwXwXwXwXwXwXwXwXwXwXwXwXwX",
"wXwXwXwXwXwXwXwXwXwXwXwXwXwXwXwXwXwXwXwXwXwXwX# & x G R ) _ _ ) ) ) ) Q ) ) ) ) _ ] U.[.$X#X&X@XE.T x % . wXwXwXwXwXwXwXwXwXwXwXwXwX",
"wXwXwXwXwXwXwXwXwXwXwXwXwXwXwXwXwXwXwXwXwX* 7 N T ) ) ) ) ) ) ) ) ) ) ) ) ) ) ) ) ) ) ) _ U.`.@X&X=X#XY.D ; X wXwXwXwXwXwXwXwXwXwXwX",
"wXwXwXwXwXwXwXwXwXwXwXwXwXwXwXwXwXwXwXwXwXO q.j.D.-./ ) ) ) Q ) ) ) _ _ ) ) ) ) ) _ ) ) ) ) ) ' E.#X%X&X%X[.I ; wXwXwXwXwXwXwXwXwXwX",
"wXwXwXwXwXwXwXwXwXwXwXwXwXwXwXwXwXwXwXwXwX* u $.w.y.l.j.H.J.-.( _ _ ) ' ) ) _ ) ) ) ) ) ) ) ) ) ) T.%X&X&X&X&XE.n # wXwXwXwXwXwXwXwX",
"wXwXwXwXwXwXwXwXwXwXwXwXwXwXwXwXwXwXwXwXwXwX@ * 6 e @.<.9.t.i.z.l.5.G.A.-. ._ ) ` ) ) _ ) ) ) ) ) Y.&X&X%X&X%X&X@XG # wXwXwXwXwXwXwX",
"wXwXwXwXwXwXwXwXwXwXwXwXwXwXwXwXwXwXwXwXwXwXwXwX+ X * = 7 6 q r @.0.f.p.a.h.H.D.-.) _ ) ) ) ) ) ) W.&X&X%X%X%X%X&X#XH $ wXwXwXwXwXwX",
"wXwXwXwXwXwXwXwXwXwXwXwXwXwXwXwXwXwXwXwXwXwXwXwX# % 1 v D G D S F s 0 r #.9.p.s.a.j.D._ Q ) ) ) ) [.&X&X&X%X&X%X%X&X#XH * wXwXwXwXwX",
"wXwXwXwXwXwXwXwXwXwXwXwXwXwXwXwXwXwXwXwXwXwXwX# < A Z T _ _ _ ' } `.) > * 7 e @.e.p.d.h.A.W ) ) ) Y.%X&X%X%X%X%X%X%X&X#XA # wXwXwXwX",
"wXwXwXwXwXwXwXwXwXwXwXwXwXwXwXwXwXwXwXwXwXwX# 2 Z Z I _ _ ) ) ) ) _ `.`.A ; ; & 6 ..0.p.s.I.^ _ ) ] $X&X%X%X&X&X%X%X%X&X|.1 wXwXwXwX",
"wXwXwXwXwXwXwXwXwXwXwXwXwXwXwXwXwXwXwXwXwX# > Z Z S ` ) ) _ ) _ _ ) ) T.}.I x x < & 7 o.e.d.z.D.) ) ] $X&X&X&X&X%X&X#X%X&X] $ wXwXwX",
"wXwXwXwXwXwXwXwXwXwXwXwXwXwXwXwXwXwXwXwX# $ m Z Z G ) _ ) _ ) ) ) ) _ ) } |.Y x N n < & w 8.d.d.G.' ) ] }.%X&X&X&X@XU.}.=X#XM + wXwX",
"wXwXwXwXwXwXwXwXwXwXwXwXwXwXwXwXwXwXwXwX# < Z Z Z G ) ) ) ) ) ) ) ) ) ) ) } |.I n Z N x ; u <.p.b.H.~ _ ) U.E.}.[.] ` U.#X&XU.% wXwX",
"wXwXwXwXwXwXwXwXwXwXwXwXwXwXwXwXwXwXwX# % m Z Z Z S Q ) ) ) ) ) ) ) ) ) ) ) T.$XZ n Z Z n ; 4 8.s.b.G._ ) ) ) ) ) ) ) U.$X&X#Xx wXwX",
"wXwXwXwXwXwXwXwXwXwXwXwXwXwXwXwXwXwXwX+ ; M Z Z Z Z W _ _ ) _ ) ) _ ) ) ) ) `.=X{.n A Z Z n : w 9.v.n.S.) ) ) ) ) ) ] #X&X&X&XU o wX",
"wXwXwXwXwXwXwXwXwXwXwXwXwXwXwXwX# * * - - - , 3 1 1 M H R Q ) ) ) ) ) ) ) ) {.&X%X_ c A A N c ; ..i.b.j._ ) ) _ ) ) } %X=X&X&XU.$ wX",
"wXwXwXwXwXwXwXwXwXwXwXwXwXwXwXwX- ,.y.c.c.c.g.g.6.2.k j i p c v I ` ) ) _ ) ] {.{.|.N M S S N < 7 $.v.n.A.) ) ) ) ) _ |.&X&X&X{.& wX",
"wXwXwXwXwXwXwXwXwXwXwXwXwXwXwX+ 9 f.b.b.b.b.M.N.M.N.B.B.Z.V.6.2.j , U ) ) ) ) ) ) E.U.c S N A m & r i.b.k.) ) ) ) ) _ } {.E.E.$X< wX",
"wXwXwXwXwXwXwXwXwXwXwXwXwXwXwX+ w e.b.b.b.b.b.v.b.b.b.b.m.N.N.B.Z.4.p Q ) ) ) ) _ ] {.n N S S A 1 5 e.b.z.^ ) ) ) ) ) ) ) ` U.$Xx wX",
"wXwXwXwXwXwXwXwXwXwXwXwXwXwXwX@ w 7.f.d.b.b.b.b.b.b.b.b.b.b.b.b.N.Z.j D ) ) ) ) _ _ {.M M Z A S x = #.d.b.J.) ) _ ) ) _ _ ) _ }.n wX",
"wXwXwXwXwXwXwXwXwXwXwXwXwXwXwX+ w 7.7.9.w.p.v.b.b.b.b.b.b.b.b.b.M.B.6.p ) ) ) ) ) ' {.M > 2 M A n : o.s.v.H.) ) ) ) ) ) ) ) ' E.c wX",
"wXwXwXwXwXwXwXwXwXwXwXwXwXwXwX+ w 7.7.7.8.7.9.w.p.d.v.b.b.b.b.b.b.B.Z.i I ) ) ) ) _ }.T ~.[ c < 2 & X.i.b.j.Q ) ) ) ) ) ) ) _ T.< wX",
"wXwXwXwXwXwXwXwXwXwXwXwXwXwXwX@ w $.$.*.8.8.8.7.7.7.w.i.s.v.b.b.b.N.Z.2.m ) ) ) [ ) {.Q ).2X7X*XU > w $.f.l. .) ) ) ) _ ) ) ) ] ; wX",
"wXwXwXwXwXwXwXwXwXwXwXwXwXwXwXwXo 5 5 4 0 q e ..X.o.@.#.$.e.u.m.b.b.B.V.p R _ Q ) ) `._ /.>X3X4X6X:XW.C q h S U ` ) ) ) ) ) ) T $ wX",
"wXwXwXwXwXwXwXwXwXwXwXwXwXwXwXwXwXwX# 2 x 2 < > & O w 4 4 6 0 r O.,.6.V.u T _ _ ) ) `._ !.,X1X1X1X5X0XqX*X) c 2 M D T Q ) ) _ M # wX",
"wXwXwXwXwXwXwXwXwXwXwXwXwXwXwXwXwXwX# m R T U H n 9 7.9.X.: x x m m a a 3 T _ ) ) ) E.} R._.,X1X1X1X9X8X5X8X:X|.G 1 2 A H R R < # wX",
"wXwXwXwXwXwXwXwXwXwXwXwXwXwXwXwXwXwXX x ) _ _ Q Z y i.v.q.> A S G Q ) R R Q _ ) ) ) U.E.: :.).<X1X1X2X8X4X5X0X5X6X;X[ c < c n $ wXwX",
"wXwXwXwXwXwXwXwXwXwXwXwXwXwXwXwXwXwXwX& G Y T R D 8 t.b.y.7 c S Z G Q _ _ ) _ ) ) ) } {.< : v ^._.>X1X9X8X2X8X5X2X4X9X7XW.% % # wXwX",
"wXwXwXwXwXwXwXwXwXwXwXwXwXwXwXwXwXwX# $ 1 x 2 c n 3 <.b.s.u x Z S Z H Q ) ) ) ) ) ) ] {.n M < & b (.<X1X8X3X3X8X>X>X>X5X X$ wXwXwXwX",
"wXwXwXwXwXwXwXwXwXwXwXwXwXwXwXwXwXwX# 2 F I H G Z 2 X.v.b.+.< A Z Z Z H Q ) ) _ _ ) [ {.M A x < M v E ^.~.Q.R.Q.R.R.:.:.c . wXwXwXwX",
"wXwXwXwXwXwXwXwXwXwXwXwXwXwXwXwXwXwX# > Z R _ _ ) S u i.b.r.3 c Z Z Z S H Q ) ) ) ) _ {.S N x 3 U W S S H J T R ) ' } } S # wXwXwXwX",
"wXwXwXwXwXwXwXwXwXwXwXwXwXwXwXwXwXwXwX$ m F W ) ) Y , <.b.b.h < M Z A S A H Q ) ) ) ) {.F M x < H ) ) _ [ _ _ ] } } Y.}.U.$ wXwXwXwX",
"wXwXwXwXwXwXwXwXwXwXwXwXwXwXwXwXwXwXwX# < A F W ) ` A f u.b.r.8 2 A S S S N F R ) ) ) E.H M c < D ) ) ) ) ) _ ) ) ) ) } `.3 wXwXwXwX",
"wXwXwXwXwXwXwXwXwXwXwXwXwXwXwXwXwXwXwXwX$ n Z S I ` U 8 o.v.b.O.: 2 M S S A A S U ) ) E.D n c < S ` ) ) _ ) ) ) ) ) ) _ {.x wXwXwXwX",
"wXwXwXwXwXwXwXwXwXwXwXwXwXwXwXwXwXwXwXwX# & M A Z D H A 6 <.b.n.+.: 1 v N S A S S G R G < < < : S Q ) ) ) ) ) ) ) ) ) _ E.2 wXwXwXwX",
"wXwXwXwXwXwXwXwXwXwXwXwXwXwXwXwXwXwXwXwXwX# : M Z Z Z S n f w.b.m.+.= & < n A S Z n 1 < Q U.m % m H ) ) ) ) ) ) ) ) _ ] ) $ wXwXwXwX",
"wXwXwXwXwXwXwXwXwXwXwXwXwXwXwXwXwXwXwXwXwXwX# > A Z S A Z c e w.v.t.y m c < > < > 3 A R _ } {.W < x H ) ) ) ) ) ) ) _ ' x # wXwXwXwX",
"wXwXwXwXwXwXwXwXwXwXwXwXwXwXwXwXwXwXwXwXwXwXwX# > N S A Z Z 2 h e.q.- S U T H F H W _ ) _ ) _ E.U.M < F Q ) ) ) ) ) ) m # wXwXwXwXwX",
"wXwXwXwXwXwXwXwXwXwXwXwXwXwXwXwXwXwXwXwXwXwXwXwX# & n N Z Z Z x q @.7 n A S D G S H W ) ) ) ) ) } [.H < m T W ) _ W c # wXwXwXwXwXwX",
"wXwXwXwXwXwXwXwXwXwXwXwXwXwXwXwXwXwXwXwXwXwXwXwXwX# $ % ; < x m x , = m Z Z Z Z Z Z G U ) ) ) ) ) [ E.' 2 2 S G F < # wXwXwXwXwXwXwX",
"wXwXwXwXwXwXwXwXwXwXwXwXwXwXwXwXwXwXwXwXwXwXwXwXwXwX. $ > > % $ $ & $ x Z Z Z Z Z Z Z Z G R ) ) ) ) ) U.E.M < c ; # wXwXwXwXwXwXwXwX",
"wXwXwXwXwXwXwXwXwXwXwXwXwXwXwXwXwXwXwXwXwXwXwXwXwX# ; m m 3 & % $ # # & x N Z Z Z Z Z Z Z S H W ) ) ) ) ] {.H $ @ wXwXwXwXwXwXwXwXwX",
"wXwXwXwXwXwXwXwXwXwXwXwXwXwXwXwXwXwXwXwXwXwXwXwXwX$ m x & x H U G m ; # $ & < m Z Z Z Z Z Z Z F U ) ) ) ) E.@XF # wXwXwXwXwXwXwXwXwX",
"wXwXwXwXwXwXwXwXwXwXwXwXwXwXwXwXwXwXwXwXwXwXwXwX+ $ > & A ) _ ) _ _ W n & 2 > % > x N A S Z Z Z Z G W ) ) ] |.G # wXwXwXwXwXwXwXwXwX",
"wXwXwXwXwXwXwXwXwXwXwXwXwXwXwXwXwXwXwXwXwX# $ % ; ; $ x Q ) ) ) ) _ _ ) m > Z A < # % < m A S Z Z Z S I Q _ Q % wXwXwXwXwXwXwXwXwXwX",
"wXwXwXwXwXwXwXwXwXwXwXwXwXwXwXwXwXwX# $ ; : < 2 x < & K A.~ ) ) ) _ ) ) W > 2 Z F ; + # $ > x A Z Z Z Z G U < wXwXwXwXwXwXwXwXwXwXwX",
"wXwXwXwXwXwXwXwXwXwXwXwXwXwXwXwX# # @ & < x c m v < & k n.A.) ) ) ) ) ) ) x F J n x # wXwX# # & 2 n m n n < # wXwXwXwXwXwXwXwXwXwXwX",
"wXwXwXwXwXwXwXwXwXwXwXwXwXwXwX$ ; x c < % m S S A 1 & k m.A.Q ) ) _ E.`.[ n / -XXXm # wXwXwXwXwX# $ # # $ # wXwXwXwXwXwXwXwXwXwXwXwX",
"wXwXwXwXwXwXwXwXwXwXwXwXwX# # < D R ) ` 2 ; N A S c ; K n.J.) ) ) Y.%X&X} 1 / +X-X=X8 wXwXwXwXwXwXwXwXwXwXwXwXwXwXwXwXwXwXwXwXwXwXwX",
"wXwXwXwXwXwXwXwXwXwXwXwX# & > A ` ) ) _ R : x S Z M & B y.j._ ) ) U.#X@XU , oXOX.X-X .X wXwXwXwXwXwXwXwXwXwXwXwXwXwXwXwXwXwXwXwXwXwX",
"wXwXwXwXwXwXwXwXwXwXwXwX$ n 2 ! ) ) _ ) ) M > A Z A < ; %.G.~ ) } [.U.W < ! OXOXOX=X=.# wXwXwXwXwXwXwXwXwXwXwXwXwXwXwXwXwXwXwXwXwXwX",
"wXwXwXwXwXwXwXwXwXwXwX# < S 2 4.H./ ` ` _ J & Z Z S N & 2 T ) _ ] } H 3 J .XOXOXOX=X=.+ wXwXwXwXwXwXwXwXwXwXwXwXwXwXwXwXwXwXwXwXwXwX",
"wXwXwXwXwXwXwXwXwXwXwX% M R T s ,.l.L.U.T.W & N A M c > $ : M S Z 1 - W .X+XOXOXOX=X| X wXwXwXwXwXwXwXwXwXwXwXwXwXwXwXwXwXwXwXwXwXwX",
"wXwXwXwXwXwXwXwXwXwX@ < I ) ) ` Z l ^ U S M $ : : > 2 M G S c 1 > 3 ! =.{ .XOXOXOX=XW . # ; 1 & # wXwXwXwXwXwX# # wXwXwXwXwXwXwXwXwX",
"wXwXwXwXwXwXwXwXwXwX$ M R ) ) ) _ I Z I _ ' & > M S W ) ) ) ) R D 2 J s z L .XOXOX+XC . % G {.W.) n $ X # $ & > > $ wXwXwXwXwXwXwXwX",
"wXwXwXwXwXwXwXwXwXwX& G ) ) ) ) ) _ _ U.}.R 8 N M G T ) ) ) ` I c y 6 ,.1.g | ].].].x : ; 3 G U.@X@X} 1 $ c N S A & # # wXwXwXwXwXwX",
"wXwXwXwXwXwXwXwXwX# ; T S.A.' ) _ Q } #X}.1 J L x D H ) ) ) T m r 4.d z i L { { { C ; m ; > N ) ] ] } m : A A S A N 2 & # wXwXwXwXwX",
"wXwXwXwXwXwXwXwXwX# & S h.c.^ ` ) ) } {.c 3 ( ( a Z G W ) ) T c X.G./ B B !  ./ F & c A ; : N _ ) ) ) 1 < N S A S Z S c % # wXwXwXwX",
"wXwXwXwXwXwXwXwXwX# 2 2 l F.) _ _ U.T.n X > ! ( S M D T ) ) R A t 4.{ { L V B , % c S c & : D ' ) ) _ 1 : m S A Z Z M 2 ; # wXwXwXwX",
"wXwXwXwXwXwXwXwXwX# c Y A x m I _ Q < # 1 n 2 n 1 2 S G Q _ Q D i 3.K.'.=.=.=., : N m < : < G _ ) ) _ m & x M S S A x < & # wXwXwXwX",
"wXwXwXwXwXwXwXwXwX# ; W _ R G G D $ X < G J Y R T B < x A I R G 8 <.L..X.XOX'.& : 1 > % < 2 R _ ) _ ' T : : 1 m M x < & # wXwXwXwXwX",
"wXwXwXwXwXwXwXwX# % % x Y ) _ I > # X 1 m Z S G ) U.] I 1 1 c D n #.J..XOXOXm # ; ; $ % n R _ ) ) _ ) ' D ; : 2 < : $ # wXwXwXwXwXwX",
"wXwXwXwXwXwXwXwXX & 1 : : 1 > > n & $ m n 2 < x N U ) ] } ) M 1 < X.G.XX+X .# wX# # < N G T R W Q W T T I c % & % # # wXwXwXwXwXwXwX",
"wXwXwXwXwXwXwXwXwX% 2 M n c m A N $ % S G G Z m x 1 x D Y ' Y.R > y k oX.X; wXwXwX# % < 2 n m M M m c 1 > & # # wXwXwXwXwXwXwXwXwXwX",
"wXwXwXwXwXwXwXwXwX$ 1 m Z Z M m 2 # & D G G G G G Z m 2 2 Z W Z / oXV B B X wXwXwXwXwX# # $ $ $ $ $ # # o wXwXwXwXwXwXwXwXwXwXwXwXwX",
"wXwXwXwXwXwXwXwXwX# : x Z A : $ # . & S G D G G G S G G M ; : c =.+X=X{ & wXwXwXwXwXwXwXwXwXwXwXwXwXwXwXwXwXwXwXwXwXwXwXwXwXwXwXwXwX",
"wXwXwXwXwXwXwXwXwX# % < M < $ wXwX# $ Z G G D G G G G G S m & 3 =.OXOX-X! . wXwXwXwXwXwXwXwXwXwXwXwXwXwXwXwXwXwXwXwXwXwXwXwXwXwXwXwX",
"wXwXwXwXwX# # wXwXwX# # $ # wXwX# ; & n G G D G G G G G G G Z > , -.OXOX .# wXwXwXwXwXwXwXwXwXwXwXwXwXwXwXwXwXwXwXwXwXwXwXwXwXwXwXwX",
"wXwXwXwX# > 2 $ # wXwXwXwXwXwXwX# n < > G G G G G G S G G G G S 2 ; ! .XJ # wXwXwXwXwXwXwXwXwXwXwXwXwXwXwXwXwXwXwXwXwXwXwXwXwXwXwXwX",
"wXwXwXwX% Z G < 1 & # wXwXwXwXwX& S m % x G G G G G G G G G G G G n : B % wXwXwXwXwXwXwXwXwXwXwXwXwXwXwXwXwXwXwXwXwXwXwXwXwXwXwXwXwX",
"wXwXwX# x _ H m Z N x & # # wXX 2 D G x % n G G G G G S G G G S G G N % # wXwXwXwXwXwXwXwXwXwXwXwXwXwXwXwXwXwXwXwXwXwXwXwXwXwXwXwXwX",
"wXwXwX& I } Z Z G H G Z n > % $ M G S G x & m G S G G G G D G D G G G A & wXwXwXwXwXwXwXwXwXwXwXwXwXwXwXwXwXwXwXwXwXwXwXwXwXwXwXwXwX",
"wXwX# m ) ' M G _ ) ) Q Y W n & D G G G S x & m G G G G G G D G D G G G m $ wXwXwXwXwXwXwXwXwXwXwXwXwXwXwXwXwXwXwXwXwXwXwXwXwXwXwXwX",
"wXwX: Y ) ' Z H ) ) ) ) ' I ; M S G G G G S x & m G G G G G G G G G G D G x # wXwXwXwXwXwXwXwXwXwXwXwXwXwXwXwXwXwXwXwXwXwXwXwXwXwXwX",
"wX* N H B s 8 Z ) ) ) } T.< n G S G G G G G S 2 & M G G D D G D D G G D G F < X wXwXwXwXwXwXwXwXwXwXwXwXwXwXwXwXwXwXwXwXwXwXwXwXwXwX",
"wX> T s <.t.<.8 W ) _ Y.Y.> Z G G G G G S G G S > & M G D G G D G G D F G G A % wXwXwXwXwXwXwXwXwXwXwXwXwXwXwXwXwXwXwXwXwXwXwXwXwXwX",
"# x G X.m.b.v.O.B Q _ ' Q > S S G G S G G G G Z & X & M G D G G G G G G G G G x # wXwXwXwXwXwXwXwXwXwXwXwXwXwXwXwXwXwXwXwXwXwXwXwXwX",
"wX$ % 4 z 1.m.m.O.a Y _ _ ; Z G G G G G G G S > X wX# & A G D G G D G G G G G Z ; wXwXwXwXwXwXwXwXwXwXwXwXwXwXwXwXwXwXwXwXwXwXwXwXwX",
"wXwXwXwX+ * &.a.b.q.g a S ; m G S G G G S S 1 # wXwXwX# ; Z D G G G G G G G G G c # X wXwXwXwXwXwXwXwXwXwXwXwXwXwXwXwXwXwXwXwXwXwXwX",
"wXwXwXwXwXwX# y 3.C.s.q.#.8 x G G G G G S 2 # wXwXwXwXwX# > Z G G G G G G G G G x & 8 # wXwXwXwXwXwXwXwXwXwXwXwXwXwXwXwXwXwXwXwXwXwX",
"wXwXwXwXwXwXwXwX& %.V.M.C.d 1 G G G D D 2 $ wXwXwXwXwXwXwX# < Z G G G D D G G n 8 P.I.8 wXwXwXwXwXwXwXwXwXwXwXwXwXwXwXwXwXwXwXwXwXwX",
"wXwXwXwXwXwXwXwXwX@ a H.I.< c G S G A < $ wXwXwXwXwXwXwXwXwX# x G G G G G G Z ; %.C.C.;.+ wXwXwXwXwXwXwXwXwXwXwXwXwXwXwXwXwXwXwXwXwX",
"wXwXwXwXwXwXwXwXwXwXwX% > # : n A n ; # wXwXwXwXwXwXwXwXwXwXwX$ n G G G G G m > s <.b.x.3 wXwXwXwXwXwXwXwXwXwXwXwXwXwXwXwXwXwXwXwXwX",
"wXwXwXwXwXwXwXwXwXwXwXwX# wXwX# $ # wXwXwXwXwXwXwXwXwXwXwXwXwXwX% A G G G G < G R 7 r.C.l + wXwXwXwXwXwXwXwXwXwXwXwXwXwXwXwXwXwXwXwX",
"wXwXwXwXwXwXwXwXwXwXwXwXwXwXwXwXwXwXwXwXwXwXwXwXwXwXwXwXwXwXwXwX# > G G G 2 < ] _ G ..b.3.* wXwXwXwXwXwXwXwXwXwXwXwXwXwXwXwXwXwXwXwX",
"wXwXwXwXwXwXwXwXwXwXwXwXwXwXwXwXwXwXwXwXwXwXwXwXwXwXwXwXwXwXwXwXwX# n A 1 3 U.E.) ) s u.s.u wXwXwXwXwXwXwXwXwXwXwXwXwXwXwXwXwXwXwXwX",
"wXwXwXwXwXwXwXwXwXwXwXwXwXwXwXwXwXwXwXwXwXwXwXwXwXwXwXwXwXwXwXwXwXwX% < M ] [.T._ _ B <.b.O.$ wXwXwXwXwXwXwXwXwXwXwXwXwXwXwXwXwXwXwX",
"wXwXwXwXwXwXwXwXwXwXwXwXwXwXwXwXwXwXwXwXwXwXwXwXwXwXwXwXwXwXwXwXwXwX& Y ' _ ) ) ) ) S O.b.y.7 wXwXwXwXwXwXwXwXwXwXwXwXwXwXwXwXwXwXwX",
"wXwXwXwXwXwXwXwXwXwXwXwXwXwXwXwXwXwXwXwXwXwXwXwXwXwXwXwXwXwXwXwXwXwX# < G Q ) ) ) ) Z X.v.b.>.= # wXwXwXwXwXwXwXwXwXwXwXwXwXwXwXwXwX",
"wXwXwXwXwXwXwXwXwXwXwXwXwXwXwXwXwXwXwXwXwXwXwXwXwXwXwXwXwXwXwXwXwXwXwX$ n H ) ) ) ) M 9 f.b.p.t $ # wXwXwXwXwXwXwXwXwXwXwXwXwXwXwXwX",
"wXwXwXwXwXwXwXwXwXwXwXwXwXwXwXwXwXwXwXwXwXwXwXwXwXwXwXwXwXwXwXwXwXwXwX# > N G Q ) T c F f O.g N A * wXwXwXwXwXwXwXwXwXwXwXwXwXwXwXwX",
"wXwXwXwXwXwXwXwXwXwXwXwXwXwXwXwXwXwXwXwXwXwXwXwXwXwXwXwXwXwXwXwXwXwXwXwX# 2 Z F I m S ] T N U U 2 $ wXwXwXwXwXwXwXwXwXwXwXwXwXwXwXwX",
"wXwXwXwXwXwXwXwXwXwXwXwXwXwXwXwXwXwXwXwXwXwXwXwXwXwXwXwXwXwXwXwXwXwXwXwXwX% m Z c M ] _ ) T m & # wXwXwXwXwXwXwXwXwXwXwXwXwXwXwXwXwX",
"wXwXwXwXwXwXwXwXwXwXwXwXwXwXwXwXwXwXwXwXwXwXwXwXwXwXwXwXwXwXwXwXwXwXwXwXwX# ; 2 M } [ Y M & # wXwXwXwXwXwXwXwXwXwXwXwXwXwXwXwXwXwXwX",
"wXwXwXwXwXwXwXwXwXwXwXwXwXwXwXwXwXwXwXwXwXwXwXwXwXwXwXwXwXwXwXwXwXwXwXwXwXwX# 1 H Y N : $ wXwXwXwXwXwXwXwXwXwXwXwXwXwXwXwXwXwXwXwXwX",
"wXwXwXwXwXwXwXwXwXwXwXwXwXwXwXwXwXwXwXwXwXwXwXwXwXwXwXwXwXwXwXwXwXwXwXwXwXwX# > x : $ X wXwXwXwXwXwXwXwXwXwXwXwXwXwXwXwXwXwXwXwXwXwX",
"wXwXwXwXwXwXwXwXwXwXwXwXwXwXwXwXwXwXwXwXwXwXwXwXwXwXwXwXwXwXwXwXwXwXwXwXwXwXwX# # X wXwXwXwXwXwXwXwXwXwXwXwXwXwXwXwXwXwXwXwXwXwXwXwX",
"wXwXwXwXwXwXwXwXwXwXwXwXwXwXwXwXwXwXwXwXwXwXwXwXwXwXwXwXwXwXwXwXwXwXwXwXwXwXwXwXwXwXwXwXwXwXwXwXwXwXwXwXwXwXwXwXwXwXwXwXwXwXwXwXwX  ",
"wXwXwXwXwXwXwXwXwXwXwXwXwXwXwXwXwXwXwXwXwXwXwXwXwXwXwXwXwXwXwXwXwXwXwXwXwXwXwXwXwXwXwXwXwXwXwXwXwXwXwXwXwXwXwXwXwXwXwXwXwXwXwXwXwX  "
};
