/* XPM */
static char *_53fb428f82f4e4bfc89563d636196b4eGnQIDVEnJTdFraO[] = {
/* columns rows colors chars-per-pixel */
"100 63 148 2 ",
"   c None",
".  c #070705",
"X  c #080705",
"o  c #090806",
"O  c #0D0C09",
"+  c #100F0C",
"@  c #13110E",
"#  c #161511",
"$  c #181612",
"%  c #1C1916",
"&  c #1F1C18",
"*  c #211E1A",
"=  c #25221E",
"-  c #272420",
";  c #292622",
":  c #2C2A25",
">  c #2F2C28",
",  c #312E29",
"<  c #35322D",
"1  c #38352F",
"2  c #393631",
"3  c #3E3A35",
"4  c #403D37",
"5  c #423E39",
"6  c #45423C",
"7  c #48453F",
"8  c #4A4641",
"9  c #4D4A44",
"0  c #504D47",
"q  c #524E49",
"w  c #55524C",
"e  c #59554E",
"r  c #5A5651",
"t  c #5D5953",
"y  c #615D56",
"u  c #635E59",
"i  c #66625C",
"p  c #68645F",
"a  c #6A6660",
"s  c #6C6963",
"d  c #6C6862",
"f  c #6D6964",
"g  c #6D6A64",
"h  c #6F6B65",
"j  c #6F6B66",
"k  c #6D6A64",
"l  c #706D67",
"z  c #716D67",
"x  c #716D68",
"c  c #716E68",
"v  c #726E68",
"b  c #726F69",
"n  c #726E69",
"m  c #736F6B",
"M  c #726E69",
"N  c #73706A",
"B  c #74706B",
"V  c #74716B",
"C  c #76736D",
"Z  c #76726D",
"A  c #77746F",
"S  c #75716C",
"D  c #78746F",
"F  c #78746F",
"G  c #787570",
"H  c #797670",
"J  c #7A7671",
"K  c #797671",
"L  c #7C7873",
"P  c #7C7974",
"I  c #7D7A74",
"U  c #7E7A75",
"Y  c #7E7A74",
"T  c #7F7B76",
"R  c #7E7B76",
"E  c #7F7C77",
"W  c #7E7A75",
"Q  c #807D77",
"!  c #807C77",
"~  c #817D78",
"^  c #817E79",
"/  c #827E79",
"(  c #817E7A",
")  c #837F7A",
"_  c #827F7A",
"`  c #827E79",
"'  c #83807B",
"]  c #84807B",
"[  c #85817C",
"{  c #85827D",
"}  c #86827D",
"|  c #87837E",
" . c #87847F",
".. c #86827D",
"X. c #88847F",
"o. c #898580",
"O. c #888580",
"+. c #898681",
"@. c #8A8782",
"#. c #898580",
"$. c #8B8883",
"%. c #8C8883",
"&. c #8D8A85",
"*. c #8E8B85",
"=. c #8F8B86",
"-. c #8F8C87",
";. c #8C8A85",
":. c #8F8D8A",
">. c #908D87",
",. c #908C87",
"<. c #908D88",
"1. c #918D88",
"2. c #918E89",
"3. c #928E89",
"4. c #938F8A",
"5. c #918E89",
"6. c #93908B",
"7. c #94908A",
"8. c #95928D",
"9. c #96928D",
"0. c #97938E",
"q. c #94918C",
"w. c #98948F",
"e. c #969591",
"r. c #999590",
"t. c #9A9691",
"y. c #9B9792",
"u. c #989590",
"i. c #9C9893",
"p. c #9B9996",
"a. c #9F9D9A",
"s. c #A09E9B",
"d. c #A4A29F",
"f. c #A8A7A5",
"g. c #AAA9A7",
"h. c #B1B0AE",
"j. c #B4B3B1",
"k. c #BAB9B7",
"l. c #BCBBB9",
"z. c #C0BFBE",
"x. c #C1C0BF",
"c. c #C4C3C2",
"v. c #C9C8C7",
"b. c #CBCAC9",
"n. c #D4D4D3",
"m. c #DEDEDE",
"M. c #DFE0E0",
"N. c #E0E0E0",
/* pixels */
"                                                          p.:.$.( R R R G G P G P ( {                                                                                                                   ",
"                                                e.#.U A a s t r w 9 q 9 9 8 8 9 9 q w r i m G                                                                                                           ",
"                                          :.L j t r q w w w r w r w w q 9 9 9 8 8 8 6 8 6 5 8 q r j                                                                                                     ",
"                                    :.( a t 0 q q w r e r r r r w w r q 9 6 5 6 8 8 8 8 6 8 5 5 3 6 e a m                                                                                               ",
"                                { a r q q q r w e e w r r r r w w r w r w m m t 9 5 5 5 5 6 8 5 8 5 3 8 0 t x                                                                                           ",
"                            E p w 8 9 q q w w w r e r r r t r t r q r q t m P E m a t w 8 3 3 5 3 5 3 3 3 3 9 a                                                                                         ",
"                        { f 9 8 8 q q q q q w r w r e r r r t r r r w w q 9 w r u s s s t r q 8 5 2 3 8 3 6 3 8 t m                                                                                     ",
"                      A y 8 8 8 9 9 q q q w w w t w r r r t r t t w r w r w q q 9 9 9 q r t u a a r 9 3 8 3 8 3 6 r f                                                                                   ",
"                  _ a 0 8 8 8 0 0 0 q q w q w r r t r w r r t r r r w r w q w 9 q 9 8 8 5 8 8 9 e w 6 5 5 6 5 6 5 5 w a                                                                                 ",
"                _ y 6 7 8 8 9 8 9 9 9 q q w r r r w r t w r r t r w r q w w 9 w 9 9 8 6 8 5 5 5 5 6 4 6 5 5 6 5 6 6 5 w d p t y h V h h                                                                 ",
"              R r 6 6 6 8 9 8 9 9 9 q 9 w w w r w r w w r w t r r t w w q w w 9 q 6 6 8 5 6 5 5 5 4 6 3 6 5 5 6 5 5 6 6 r i q 9 e 7 7 7 q q e u z                                                       ",
"            G r 5 6 8 3 3 8 9 9 9 q 9 w 8 8 q q r r t r w t w t t r r w r w 9 9 8 9 6 6 8 5 5 5 5 6 3 6 3 5 5 3 5 5 6 5 8 y y 9 7 7 7 7 0 0 7 7 7 0 w i V                                               ",
"          A r 3 5 w t m a 9 9 8 0 8 f #.( x t q 6 9 r r t w t w w t w t w w w 9 9 6 8 6 6 8 5 8 5 6 6 5 6 4 5 5 5 5 5 6 5 q u e 7 7 7 7 7 7 7 7 8 7 0 7 7 0 y h                                         ",
"        m u 5 5 6 8 a ( w 8 8 0 8 i #.3.e.9.:.&.( i w 8 8 q q r r w r w r q w 9 8 9 8 8 8 6 8 5 8 5 6 5 5 5 3 6 5 5 5 5 6 5 t y 7 7 6 7 6 7 7 7 7 7 7 7 0 7 6 4 q p                                     ",
"        a 9 5 5 5 6 3 6 6 8 9 8 u ( 3.4.:.D m #.e.e.:.( x r q 6 q w w u w w 9 q q 8 9 8 8 8 8 8 6 6 5 6 5 4 5 3 5 3 5 5 5 5 q u 7 6 4 6 6 4 6 7 7 7 7 7 7 7 7 7 7 5 0 i                                 ",
"      x t 5 5 5 8 5 8 5 8 8 6 t U X.:.%.( Z ( ( e.e.:.( @.:. .A i w 9 9 w w r q q 9 8 9 5 8 5 8 8 6 6 4 5 5 4 3 3 5 4 5 5 4 8 u e 4 4 4 4 4 4 6 6 7 7 7 7 7 7 6 7 8 7 7 w z                             ",
"    m d 8 5 5 6 5 6 6 8 8 8 w m ( O.O.R m m m :.e.:.m A m ( p.e.4.7. .l t 9 6 9 8 0 9 7 0 5 9 5 6 8 5 6 5 5 3 3 4 3 5 3 5 3 5 q e 7 4 4 4 4 4 4 6 6 6 6 6 7 7 7 7 7 7 7 7 7 i                           ",
"    j r 5 5 6 6 6 5 6 6 6 8 q t a m ( O.R P @.:.:.m m m P e.e.{ #.>.2.i.2.{ m t q 7 5 7 7 9 5 8 5 6 6 5 5 5 5 3 5 3 3 3 3 5 4 w e 7 4 4 4 1 4 1 4 6 6 4 6 6 7 7 7 7 7 7 7 7 7 e !                       ",
"  m f w 5 5 5 8 5 8 6 6 8 8 9 8 9 q t j A { :.e.( m m G :.:.:.P A f ' %.D 2.-.{ ! n y 8 5 4 5 5 8 5 8 5 5 5 3 5 3 5 2 3 3 3 5 q e 7 1 < 1 4 4 4 1 6 4 6 6 6 6 6 7 7 7 w 7 7 e 7 0 d                     ",
"  j a 6 5 5 8 5 6 6 6 8 8 8 8 8 8 q 9 q w t f A ( :.{ ( :.:.{ p A Q S N X.7.#.d d n ! D z u w 5 3 5 3 6 5 5 3 5 5 3 5 3 5 4 5 9 e 7 1 4 1 1 1 4 6 1 6 1 4 4 4 6 7 7 7 7 7 w 7 e q 9 f                   ",
"  f u 5 5 5 5 8 5 6 6 8 8 8 8 8 q 8 q 9 q q q w r f m P ( :.( ( 7.m S ,.q.&.m a z f ~ ! J n n h i e 8 4 3 3 5 3 4 4 5 5 3 5 4 q y 7 4 1 1 1 1 1 1 1 4 4 4 6 6 6 7 7 7 7 7 7 7 7 w e 7 p                 ",
"m f y 3 5 5 5 5 6 6 8 6 6 8 8 9 8 q 8 q q q q q r 9 w w i m ( :.4.>.q.2.&.m s m f ~ | U a y y h m j d i w 8 5 5 4 5 4 5 5 5 5 r e 6 , , , , < 1 1 1 1 4 3 1 4 4 4 4 6 6 7 7 7 e 7 w e 0 u               ",
"m a r 5 3 6 5 5 3 6 6 6 6 8 8 8 8 8 w 9 q 9 q w q q 9 r 9 r r f A ! X.#.#.J d p D | ) m y a u y l l l f t 7 5 3 5 4 5 5 5 5 7 w y 6 , , , , , 1 1 1 1 1 1 6 1 3 4 4 4 6 7 7 7 w 7 w e e 0 !             ",
"f i r 3 8 5 5 5 6 5 6 5 6 8 8 8 6 q 6 9 8 q 9 q q q r w r q u q r w i d m J U ! _ O.K u n h p h m m l i q 5 5 4 5 5 5 7 5 7 5 r 7 4 : , , , , , , 1 1 1 1 1 1 6 4 4 4 6 7 7 7 7 7 7 7 e t e !           ",
"y i r 5 3 5 3 6 5 5 5 6 8 6 8 6 8 6 9 6 q 8 9 8 w w w w w r q r 9 t 9 w 0 r t a n Z D J ! h u B v v a y 5 7 4 7 4 4 4 5 5 7 q y 7 1 : , : , , , , , , 1 < 1 1 1 1 1 4 4 4 6 6 6 7 7 7 0 y e y           ",
"a y y 3 5 3 5 3 5 3 6 6 5 6 6 8 6 8 6 q 8 9 8 w q w q r r w w q t 9 e 8 w 8 q 8 q r y a h m B D v z y 9 4 5 5 5 3 2 4 5 8 5 y r 6 , : : : : : , : , , < < < < < 1 1 1 4 4 4 4 6 7 7 7 7 0 y e p         ",
"f t u 6 3 5 2 5 3 5 5 5 3 8 8 6 6 6 9 6 q 8 w 9 w 9 r q w q w r w w 9 e 8 q 8 0 5 0 5 q w y u u f p r 4 7 5 7 4 5 - < y 7 q y 0 4 ; ; : ; ; : : , , , , < < < < < 1 1 4 1 6 4 6 7 7 7 7 7 e y e m       ",
"A t a 9 5 2 5 2 5 2 5 3 8 6 3 6 8 9 8 9 8 w 9 q 9 r q r 8 r q w 0 w w q q 8 q 8 q 5 0 5 8 5 8 9 e r 7 5 5 7 4 7 8 8 q 0 5 y r 5 , = = = = : ; : : : : : : , < < , < < 1 1 1 4 4 6 4 4 7 7 0 y y u       ",
"s.u i t 2 4 2 6 3 5 3 8 2 5 3 8 6 8 8 q w 9 q q r 9 w 9 r 8 w 8 r 9 r 8 q 9 9 8 8 8 8 9 5 7 5 9 4 7 4 7 5 7 5 7 5 7 7 7 e y 7 4 ; = = = = = ; : ; ; : : : : , , , < < 1 1 4 1 6 4 4 4 7 e e e y t l     ",
"  m t p 0 3 5 2 5 2 6 2 5 3 9 3 8 6 q 9 q 9 w w q q q w 9 w 8 w 9 r 6 w 8 w 8 9 5 0 5 8 5 7 5 5 5 5 5 4 7 5 7 5 7 5 7 7 y q 4 : = * * = = = ; = = ; ; : : : : , , , < < 1 1 1 1 3 4 6 7 e e y y t i     ",
"  e.q i r 4 2 5 3 5 2 5 3 8 < 6 6 q 8 9 8 w 9 q 9 w w q 9 q w q q 9 q 9 q 6 9 6 q 5 8 5 0 5 5 5 8 5 5 5 5 5 5 5 5 7 7 y e 4 < * * * * = * = = ; ; = ; = : ; : : : , , , < 1 1 4 3 4 4 7 e e y y y y v   ",
"  z.i w p q 5 3 3 2 5 3 6 2 8 8 6 3 8 8 w 8 q 8 r 8 q 8 w q w 8 q q q 9 8 9 9 8 5 8 5 9 5 7 5 8 4 5 4 8 5 5 4 7 5 0 t e 4 4 * * * * * * * * * * = = = = = = = : : , , , , < 1 1 1 4 4 7 e e y y y y z   ",
"    w.8 t y 6 3 3 5 3 5 3 8 i i t e 8 8 3 8 8 e 8 0 8 e 8 q 6 e 9 w 8 q 8 q 6 9 8 8 6 6 5 8 5 5 5 5 5 5 5 5 6 5 9 y e 5 2 = & & * * & * * * * * * * = * * = = ; : : , , , , < < 1 1 4 7 e e y y u y p   ",
"    b.f 7 t p 9 5 3 3 5 6 9 t y a a a a t 9 8 3 8 8 0 8 9 8 w 9 q 8 w 8 q 6 9 8 q 3 8 5 8 3 6 2 8 3 8 3 6 5 8 9 i e 4 2 - $ $ $ $ $ $ & $ % & * * * * * * * = = = ; : : , , , < 1 1 4 4 e e y y u t y A ",
"      j.w 8 y i 8 3 6 6 5 5 8 9 e t a j m m a r 8 3 3 6 9 0 8 8 9 q 9 9 8 9 9 9 6 8 5 8 3 6 3 8 3 5 3 6 5 8 w y q 4 1 = $ $ $ $ # $ $ $ $ $ $ & * * * * * * * = = ; : : : : , , < < 1 4 e e y y i r y f ",
"      m.d.9 8 y a r 3 5 5 9 5 8 3 9 q t t f f j j a r 0 3 5 6 q 8 9 6 9 8 q 6 8 6 0 6 8 3 8 5 5 3 6 5 6 8 y y 8 2 < = $ $ $ $ $ $ $ $ $ $ $ $ $ $ % $ & * * * * = = ; : : : , , , 1 1 4 0 e y y i t y d ",
"        m.u.7 6 r a a 9 8 3 6 3 0 3 8 3 0 0 t t a s s f a q e 7 9 5 9 6 9 5 8 8 0 3 8 3 9 5 5 3 8 5 9 w u w 3 2 , * $ $ $ $ $ $ # $ $ $ $ $ $ $ # $ $ $ $ * * * * = = = ; : : , , , 1 4 7 e y y i t y i ",
"          m.p.9 5 q u a e 8 5 8 3 8 6 9 5 8 8 0 0 t t a a y 6 8 8 q 8 8 6 8 8 8 5 6 8 6 3 3 5 6 9 e a t 8 2 1 ; & $ $ $ $ $ $ $ $ $ $ $ $ $ $ $ $ $ $ $ # $ % * * * = = = : : : , , < 1 7 e t y i y u u ",
"            m.g.r 3 5 e i y w 6 8 8 8 3 6 8 8 8 3 8 0 e r 8 6 w 9 8 5 q 8 9 5 8 3 9 3 6 3 9 9 t a t 8 2 < > * $ # # % $ $ % $ $ $ $ $ $ $ $ $ $ $ $ $ $ $ $ # & * * * = = ; ; : : : < 1 7 e e y y y u i ",
"              M.x.J 6 2 6 e p a t 9 8 3 9 3 8 3 q 8 0 5 9 6 w 5 9 6 w 6 9 5 8 5 8 3 8 q r y i r 5 1 < < - $ @ @ + @ @ @ @ @ @ @ $ $ $ $ $ $ $ $ $ $ $ # $ $ $ $ $ % * * = = ; ; : , , 1 7 e e y u y y z ",
"                N.n.s.t 3 2 3 9 t a a r 0 0 8 w 5 8 5 0 6 9 5 8 8 9 6 6 8 q q 8 t t s a t 9 3 < < , = @ O + O O o o O o o o O O @ + # # + # # $ $ $ $ $ $ $ $ $ # $ * * * = = = : : , < 7 w e y u t u z ",
"                  M.m.b.q.t 3 2 2 3 8 r i a a s a a r w 9 t r t q r u j i j m s a e 8 3 < < < : = # + O o o o o o o o o o o o X o o o o o + + @ $ $ $ $ # $ $ $ $ $ $ & * * = = : : : , 7 w e y y t u Z ",
"                      N.M.b.p.a 8 < > < 2 3 8 0 r t i i p p a f a a a t w 9 8 3 < < < > : - & # O O o o o o o o o o o o o o o o o o o o o o o + + # $ $ $ $ $ $ $ $ # % * * * = = : : , 7 7 w y y y i   ",
"                        m.M.N.n.k.:.a 8 2 < > > > < < < 2 2 2 2 2 < < < < < > > > ; - & % @ o o X X o o o o o X o o o o X o o o o o o o o o o o o O @ $ # $ $ $ $ $ $ $ * * * = = = : , 6 7 e i y y i   ",
"                              m.N.M.n.c.f.;.m r 8 5 2 2 < < < > > > > : ; - * & % $ $ $ + O o o X o o o o o o o o o o o o o o o o o o o o o o o o o O + + # $ $ $ $ $ $ % * * * = = : , 6 7 e y t y d   ",
"                                  M.N.N.M.M.m.n.v.l.h.g.f.e.8 < < ; & % $ $ $ $ $ $ @ O o o o o X o o o o o o o o o X o o o o o o o o o o o o o o o o o o + $ $ $ $ # $ # % * * = = = : 6 0 t t r y     ",
"                                          M.m.m.M.N.M.N.M.M.p.3 2 < % $ $ $ $ $ # O O o o o o o o o o o o o o o o o o o o o o o o o o o o o o o o o o o o o O + # $ $ $ # # % * = = = : 4 7 y t y y     ",
"                                                      m.m.M.n.t 3 3 > $ $ $ $ $ O o o o o o o o o o o o o o o o o o o o o o o o o o o o o o o o o o o o o o o O @ # $ $ # % $ * * = = : 4 w t t y       ",
"                                                                e q 3 : $ $ % O o o o o o o o o o o o o o o o o o o o X o o o o o o o o o o o o o o o o o o o o + + # $ $ # $ % * * = ; 7 t t t i       ",
"                                                                  t q 8 > $ + o o o o o o o o o o o o X o o o o o o o o o o o o X o o o o o o X o o o o o o o o o + + $ $ $ $ $ # * * , w r t t         ",
"                                                                    y f a < o o o o o o o o o o o o o o o X o o o o o o o o o o o o o o o o o o o o o o o o o o o o o + $ $ $ $ $ * = 7 e e r           ",
"                                                                      y m a 2 o . o o o o o o o o o o o o o o o o o o o o o o o o o o o o o o o X o o o o X o o o o o + + # $ $ # * 7 e t e             ",
"                                                                        a f j 8 # . . o o o o o o o o X o o o o o o o o o o o o o o o o o o o o o o o o o X o o o o o o o + $ # * 7 e e e               ",
"                                                                          i f f e & o o o o o o o o o o o o o o o o o o o o o o o o o o o o o o o o o o o o o o o o o o o O # = 7 e r e                 ",
"                                                                            u a d u 3 # o o o o o o o o o o o o o o o o o o X o o o o o o o o o o o o o o o o o o o o o o + , q e e e                   ",
"                                                                                t a d w > O o o o o o o o o o o o o o o o o o o o o o o o o o o o o o o o o o o o o X o * 5 e e e e                     ",
"                                                                                  y i i i q > O . . o o o o o o X o o o o o o o o o o o o o o o o o o o o o o o X o % 2 q y e e t                       ",
"                                                                                      y i i i w < % O o o o o o o o o o o o o o o o o o o o o o o o o o o o o + * 2 q y e r r                           ",
"                                                                                          y y y y r 7 : % O o o X . o o o o o o o o o o o o o o . o o o O & , 5 w e e e e                               ",
"                                                                                              t t y t y e 8 2 ; & @ O o o X X X o o o o X o o O + % ; 2 8 q e e w e e                                   ",
"                                                                                                    r r r t y t e w 9 5 2 , : ; = - ; ; , 1 4 7 0 e r r r e e e                                         ",
"                                                                                                            r y y t y y t y t y r y y e r y r t r r r y t                                               ",
"                                                                                                                    h r t i t w e y e q y p t u                                                         "
};
